<svg id="washing" enable-background="new 0 0 512 512" height="512" viewBox="0 0 512 512" width="512" xmlns="http://www.w3.org/2000/svg"><path d="m458.5 463.5c-1.279 0-2.56-.488-3.535-1.465l-30.036-30.035h-337.857l-30.036 30.035c-1.953 1.953-5.118 1.953-7.071 0-1.953-1.952-1.953-5.118 0-7.07l30.035-30.036v-337.858l-30.035-30.035c-1.953-1.953-1.953-5.119 0-7.071s5.118-1.952 7.071 0l30.036 30.035h337.857l30.036-30.036c1.951-1.952 5.119-1.952 7.07 0 1.953 1.953 1.953 5.119 0 7.071l-30.035 30.036v337.857l30.035 30.036c1.953 1.952 1.953 5.118 0 7.07-.975.978-2.255 1.466-3.535 1.466zm-143.982-41.5h100.411l-38.121-38.122c-17.702 16.732-38.868 29.841-62.29 38.122zm-172.254-45.192c29.731 28.008 69.763 45.192 113.736 45.192s84.005-17.184 113.736-45.192l-113.736-113.737zm-45.192 45.192h100.412c-23.422-8.281-44.588-21.39-62.29-38.122zm286.806-45.192 38.122 38.121v-100.411c-8.281 23.421-21.389 44.587-38.122 62.29zm-293.878-62.29v100.411l38.122-38.121c-16.732-17.703-29.841-38.869-38.122-62.29zm173.072-58.518 113.736 113.736c28.009-29.731 45.192-69.763 45.192-113.736s-17.184-84.005-45.192-113.736zm-173.072 0c0 43.973 17.184 84.005 45.192 113.736l113.737-113.736-113.736-113.736c-28.009 29.731-45.193 69.763-45.193 113.736zm52.264-120.808 113.736 113.737 113.736-113.736c-29.731-28.009-69.763-45.193-113.736-45.193s-84.005 17.184-113.736 45.192zm241.614.001c16.732 17.702 29.841 38.868 38.122 62.29v-100.412zm-293.878-38.122v100.412c8.281-23.422 21.39-44.588 38.122-62.29zm224.518-7.071c23.422 8.281 44.588 21.39 62.29 38.122l38.121-38.122zm-217.446 0 38.122 38.122c17.702-16.731 38.868-29.84 62.29-38.122z" fill="rgb(0,0,0)"/></svg>