<svg id="washing" enable-background="new 0 0 512 512" height="512" viewBox="0 0 512 512" width="512" xmlns="http://www.w3.org/2000/svg"><path d="m256 441c-61.353 0-115.829-30.025-149.504-76.148l-63.663 43.768c-2.275 1.564-5.389.987-6.953-1.287-1.564-2.275-.988-5.389 1.288-6.953l63.651-43.76c-18.856-28.98-29.819-63.543-29.819-100.62s10.963-71.64 29.818-100.62l-63.651-43.76c-2.276-1.564-2.852-4.677-1.288-6.953s4.678-2.853 6.953-1.288l63.663 43.768c33.676-46.122 88.153-76.147 149.505-76.147s115.829 30.025 149.505 76.148l63.662-43.768c2.276-1.566 5.389-.987 6.953 1.288s.988 5.388-1.287 6.953l-63.651 43.76c18.855 28.979 29.818 63.542 29.818 100.619s-10.963 71.64-29.818 100.62l63.651 43.76c2.275 1.564 2.852 4.678 1.287 6.953-1.563 2.275-4.673 2.854-6.953 1.287l-63.662-43.769c-33.676 46.124-88.152 76.149-149.505 76.149zm-141.263-81.813c31.867 43.509 83.321 71.813 141.263 71.813s109.396-28.304 141.264-71.813l-141.264-97.12zm150.089-103.187 138.114 94.954c17.744-27.365 28.06-59.981 28.06-94.954s-10.316-67.589-28.06-94.954zm-155.767-94.954c-17.742 27.365-28.059 59.981-28.059 94.954s10.316 67.589 28.059 94.954l138.116-94.954zm5.678-8.233 141.263 97.119 141.264-97.119c-31.867-43.509-83.321-71.813-141.264-71.813-57.942 0-109.396 28.304-141.263 71.813z" fill="rgb(0,0,0)"/></svg>