<svg id="washing" enable-background="new 0 0 512 512" height="512" viewBox="0 0 512 512" width="512" xmlns="http://www.w3.org/2000/svg"><path d="m471.995 432c-.976 0-1.962-.285-2.828-.88l-51.084-35.12h-324.166l-51.084 35.12c-2.275 1.564-5.389.988-6.953-1.287s-.988-5.389 1.288-6.953l39.097-26.88h-22.765c-2.761 0-5-2.238-5-5 0-76.824 47.075-142.864 113.891-170.789l-125.223-86.091c-2.276-1.564-2.852-4.677-1.288-6.953s4.678-2.853 6.953-1.288l130.931 90.015c18.749-6.414 38.841-9.894 59.736-9.894h119.129l66.853-45.961-10.3-70.039h-229.682c-2.761 0-5-2.239-5-5s2.239-5 5-5h234c2.48 0 4.586 1.818 4.947 4.272l10.214 69.456 40.506-27.848c2.276-1.566 5.389-.988 6.953 1.288 1.564 2.275.988 5.388-1.287 6.953l-44.552 30.629 33.166 225.523c.211 1.438-.214 2.896-1.163 3.996-.95 1.1-2.331 1.731-3.784 1.731h-22.766l39.099 26.88c2.275 1.564 2.852 4.678 1.287 6.953-.969 1.41-2.533 2.167-4.125 2.167zm-50.805-46h31.521l-25-170h-71.977l-90.908 62.5zm-312.728 0h295.076l-147.538-101.433zm-49.891 0h32.24l156.364-107.5-74.858-51.465c-64.929 24.309-111.693 86.145-113.746 158.965zm125.628-162.931 71.801 49.364 82.083-56.433h-104.583c-17.109 0-33.66 2.47-49.301 7.069zm186.082-17.069h55.96l-5.138-34.94z" fill="rgb(0,0,0)"/></svg>