<svg id="washing" enable-background="new 0 0 512 512" height="512" viewBox="0 0 512 512" width="512" xmlns="http://www.w3.org/2000/svg"><path d="m409 441h-306c-2.761 0-5-2.238-5-5s2.239-5 5-5h306c2.762 0 5 2.238 5 5s-2.238 5-5 5zm0-45h-306c-2.761 0-5-2.238-5-5s2.239-5 5-5h306c2.762 0 5 2.238 5 5s-2.238 5-5 5zm0-45h-306c-2.414 0-4.483-1.725-4.918-4.099l-49.5-270c-.498-2.716 1.3-5.322 4.016-5.82 2.72-.498 5.322 1.3 5.82 4.016l11.322 61.754c7.63-2.731 12.854-8.563 18.341-14.688 8.256-9.217 17.614-19.664 35.974-19.664 18.354 0 27.709 10.447 35.963 19.665 7.85 8.765 14.629 16.335 28.514 16.335h2.988c13.884 0 20.664-7.57 28.513-16.335 8.255-9.218 17.611-19.665 35.967-19.665 18.358 0 27.718 10.447 35.975 19.664 7.853 8.766 14.634 16.336 28.525 16.336 13.885 0 20.664-7.57 28.514-16.335 8.255-9.218 17.611-19.665 35.967-19.665 18.365 0 27.727 10.446 35.986 19.663 6.372 7.111 11.959 13.345 21.142 15.518l11.474-62.583c.499-2.716 3.108-4.513 5.819-4.016 2.717.498 4.515 3.104 4.017 5.82l-49.5 270c-.436 2.374-2.505 4.099-4.919 4.099zm-301.833-10h297.667l35.471-193.475c-12.552-2.806-20.078-11.204-26.784-18.688-7.856-8.766-14.641-16.337-28.539-16.337-13.888 0-20.667 7.571-28.518 16.336-8.255 9.217-17.61 19.664-35.963 19.664-18.358 0-27.718-10.447-35.975-19.664-7.853-8.766-14.634-16.336-28.526-16.336-13.887 0-20.667 7.571-28.518 16.336-8.254 9.217-17.61 19.664-35.963 19.664h-2.988c-18.354 0-27.709-10.447-35.963-19.665-7.85-8.765-14.629-16.335-28.514-16.335-13.892 0-20.673 7.57-28.526 16.336-6.166 6.884-13.076 14.598-23.968 17.948z" fill="rgb(0,0,0)"/></svg>