<svg id="washing" enable-background="new 0 0 512 512" height="512" viewBox="0 0 512 512" width="512" xmlns="http://www.w3.org/2000/svg"><path d="m409 414h-306c-2.414 0-4.483-1.725-4.918-4.099l-49.5-270c-.498-2.716 1.3-5.322 4.016-5.82 2.72-.501 5.322 1.3 5.82 4.016l11.321 61.753c7.636-2.735 12.859-8.566 18.341-14.686 8.256-9.218 17.614-19.665 35.975-19.665 18.355 0 27.712 10.447 35.968 19.665 5.908 6.596 11.144 12.442 19.2 14.986v-20.396c-.394-4.074-3.194-42.045 27-57.432v-19.322c0-2.761 2.239-5 5-5s5 2.239 5 5v22.5c0 2-1.192 3.808-3.03 4.596-27.77 11.901-24.041 48.484-24 48.852.021.184.031 72.552.031 72.552 0 6.926 5.444 12.604 12.277 12.98v-44.48c0-2.761 2.239-5 5-5s5 2.239 5 5v112.5c0 7.168 5.832 13 13 13 3.148 0 6.162-1.141 8.515-3.179-.011-.273-.016-86.321-.016-86.321 0-2.761 2.239-5 5-5s5 2.239 5 5v85.5c0 7.168 5.832 13 13 13 5.17 0 9.645-3.033 11.738-7.414.039-.978 1.262-4.609 1.262-5.586v-85.5c0-2.761 2.238-5 5-5s5 2.239 5 5v85.5c0 1.666-.178 3.29-.516 4.856 2.399 2.313 5.625 3.644 9.016 3.644 7.168 0 13-5.832 13-13v-94.5c0-2.761 2.238-5 5-5s5 2.239 5 5v68.335c2.35 2.027 5.37 3.165 8.5 3.165 7.168 0 13-5.832 13-13 0 0 .01-121.869.03-122.052.161-1.497 3.651-37.001-24-48.852-1.838-.788-3.03-2.596-3.03-4.596v-22.5c0-2.761 2.238-5 5-5s5 2.239 5 5v19.323c30.192 15.386 27.394 53.354 27 57.432v12.817c2.41-2.262 4.681-4.798 7.019-7.409 8.253-9.216 17.608-19.663 35.962-19.663 18.366 0 27.727 10.446 35.984 19.662 6.372 7.111 11.959 13.346 21.144 15.52l11.474-62.583c.499-2.716 3.108-4.513 5.819-4.016 2.717.498 4.515 3.104 4.017 5.82l-49.5 270c-.436 2.372-2.505 4.097-4.919 4.097zm-301.833-10h297.667l35.471-193.475c-12.554-2.807-20.079-11.205-26.786-18.689-7.854-8.766-14.638-16.335-28.537-16.335-13.886 0-20.664 7.569-28.513 16.334-4.289 4.79-8.707 9.724-14.468 13.478v95.687c0 12.683-10.317 23-23 23-2.938 0-5.82-.566-8.5-1.633v14.633c0 12.683-10.317 23-23 23-4.87 0-9.546-1.548-13.404-4.317-4.215 5.364-10.76 8.817-18.096 8.817-8.691 0-16.272-4.847-20.183-11.978-3.416 1.932-7.304 2.978-11.317 2.978-12.682 0-23-10.317-23-23v-58.011c-12.35-.383-22.277-10.549-22.277-22.989v-41.002c-12.472-2.833-19.965-11.198-26.649-18.661-7.852-8.766-14.632-16.336-28.519-16.336-13.892 0-20.673 7.571-28.525 16.337-6.172 6.891-13.075 14.598-23.969 17.948z" fill="rgb(0,0,0)"/></svg>