<svg id="washing" enable-background="new 0 0 512 512" height="512" viewBox="0 0 512 512" width="512" xmlns="http://www.w3.org/2000/svg"><path d="m436 441h-360c-2.761 0-5-2.238-5-5v-360c0-2.761 2.239-5 5-5h360c2.762 0 5 2.239 5 5v360c0 2.762-2.238 5-5 5zm-119.957-10h114.957v-114.957c-18.508 53.793-61.164 96.449-114.957 114.957zm-235.042-174.556c.239 96.293 78.651 174.556 174.999 174.556 96.495 0 175-78.505 175-175s-78.505-175-175-175c-96.348 0-174.76 78.263-175 174.556.013.146.02.294.02.444s-.006.298-.019.444zm-.001 174.556h114.957c-53.793-18.508-96.449-61.164-114.957-114.957zm235.043-350c53.793 18.507 96.449 61.164 114.957 114.957v-114.957zm-235.043 0v114.957c18.508-53.793 61.164-96.45 114.957-114.957zm175 198c-12.682 0-23-10.317-23-23 0-12.682 10.318-23 23-23 12.683 0 23 10.318 23 23 0 12.683-10.317 23-23 23zm0-36c-7.168 0-13 5.832-13 13s5.832 13 13 13 13-5.832 13-13-5.832-13-13-13z" fill="rgb(0,0,0)"/></svg>