<svg id="washing" enable-background="new 0 0 512 512" height="512" viewBox="0 0 512 512" width="512" xmlns="http://www.w3.org/2000/svg"><path d="m409 418.5h-306c-2.761 0-5-2.238-5-5s2.239-5 5-5h306c2.762 0 5 2.238 5 5s-2.238 5-5 5zm0-45h-306c-2.414 0-4.483-1.725-4.918-4.099l-49.5-270c-.498-2.716 1.3-5.322 4.016-5.82 2.72-.5 5.322 1.3 5.82 4.016l11.321 61.752c7.636-2.735 12.859-8.566 18.341-14.687 8.257-9.215 17.615-19.662 35.975-19.662 18.354 0 27.709 10.447 35.963 19.665 7.85 8.765 14.629 16.335 28.514 16.335h2.988c13.887 0 20.667-7.571 28.518-16.336 8.254-9.217 17.609-19.664 35.962-19.664 18.355 0 27.714 10.446 35.97 19.662 7.853 8.767 14.636 16.338 28.53 16.338 13.888 0 20.667-7.571 28.518-16.336 8.255-9.217 17.61-19.664 35.963-19.664 18.363 0 27.725 10.445 35.982 19.661 6.37 7.108 11.96 13.347 21.146 15.52l11.474-62.583c.499-2.716 3.108-4.513 5.819-4.016 2.717.498 4.515 3.104 4.017 5.82l-49.5 270c-.436 2.373-2.505 4.098-4.919 4.098zm-301.833-10h297.667l35.471-193.475c-12.555-2.807-20.078-11.202-26.788-18.69-7.856-8.765-14.639-16.335-28.536-16.335-13.885 0-20.664 7.57-28.514 16.335-8.255 9.218-17.611 19.665-35.967 19.665-18.361 0-27.721-10.448-35.979-19.666-7.851-8.764-14.632-16.334-28.521-16.334-13.884 0-20.664 7.57-28.513 16.335-8.255 9.218-17.611 19.665-35.967 19.665h-2.988c-18.354 0-27.709-10.447-35.963-19.665-7.85-8.765-14.629-16.335-28.514-16.335-13.892 0-20.673 7.57-28.525 16.336-6.171 6.889-13.075 14.598-23.969 17.948z" fill="rgb(0,0,0)"/></svg>