<svg id="_x31_px" enable-background="new 0 0 24 24" height="512" viewBox="0 0 24 24" width="512" xmlns="http://www.w3.org/2000/svg"><path d="m17.5 24h-11c-1.378 0-2.5-1.122-2.5-2.5v-19c0-1.378 1.122-2.5 2.5-2.5h11c1.378 0 2.5 1.122 2.5 2.5v19c0 1.378-1.122 2.5-2.5 2.5zm-11-23c-.827 0-1.5.673-1.5 1.5v19c0 .827.673 1.5 1.5 1.5h11c.827 0 1.5-.673 1.5-1.5v-19c0-.827-.673-1.5-1.5-1.5z"/><path d="m14 3h-4c-.827 0-1.5-.673-1.5-1.5 0-.276-.224-.5-.5-.5h-1c-.276 0-.5-.224-.5-.5s.224-.5.5-.5h1c.827 0 1.5.673 1.5 1.5 0 .276.224.5.5.5h4c.276 0 .5-.224.5-.5 0-.827.673-1.5 1.5-1.5h1c.276 0 .5.224.5.5s-.224.5-.5.5h-1c-.276 0-.5.224-.5.5 0 .827-.673 1.5-1.5 1.5z"/><path d="m12 15.75c-.276 0-.5-.224-.5-.5v-7.75c0-.276.224-.5.5-.5s.5.224.5.5v7.75c0 .277-.224.5-.5.5z"/><path d="m12 16c-.128 0-.256-.049-.354-.146l-2.5-2.5c-.195-.195-.195-.512 0-.707s.512-.195.707 0l2.147 2.146 2.146-2.146c.195-.195.512-.195.707 0s.195.512 0 .707l-2.5 2.5c-.097.097-.225.146-.353.146z"/><path d="m15.5 19h-7c-.827 0-1.5-.673-1.5-1.5v-2c0-.276.224-.5.5-.5s.5.224.5.5v2c0 .276.224.5.5.5h7c.276 0 .5-.224.5-.5v-2c0-.276.224-.5.5-.5s.5.224.5.5v2c0 .827-.673 1.5-1.5 1.5z"/></svg>