<svg fill="#287e60" id="Capa_1" enable-background="new 0 0 512 512" height="512" viewBox="0 0 512 512" width="512" xmlns="http://www.w3.org/2000/svg"><path d="m498.821 13.256c-17.542-17.538-46.085-17.538-63.626 0l-161.796 161.77c-.001.001-.001.001-.002.002s-.001.001-.002.002l-41.999 41.992-3.636-3.635c-17.545-17.541-46.09-17.541-63.635-.001l-20.367 20.364-137.522 99.009c-3.571 2.571-5.832 6.579-6.187 10.965-.354 4.385 1.234 8.705 4.345 11.816l152.093 152.067c2.824 2.824 6.644 4.393 10.605 4.393.395 0 .791-.016 1.187-.047 4.378-.347 8.383-2.595 10.959-6.15l98.512-135.922c.076-.073.158-.135.232-.21l21.216-21.214c8.501-8.5 13.183-19.801 13.183-31.822s-4.682-23.323-13.183-31.822l-4.173-4.172 203.797-203.762c8.498-8.497 13.178-19.794 13.178-31.811s-4.68-23.314-13.179-31.812zm-333.556 460.705-30.459-30.454 26.778-26.774c5.858-5.857 5.859-15.355.002-21.213s-15.355-5.859-21.213-.002l-26.782 26.777-23.876-23.871 52.125-52.116c5.858-5.857 5.859-15.355.002-21.213s-15.354-5.859-21.213-.002l-52.128 52.12-30.42-30.415 113.84-81.959 46.2 46.191 49.42 49.412zm112.722-146.718-10.611 10.61-92.654-92.639 10.615-10.613c5.849-5.848 15.363-5.847 21.212 0l71.439 71.427c2.833 2.833 4.394 6.6 4.394 10.607s-1.561 7.774-4.395 10.608zm6.017-120.398 21.2 21.197-31.393 31.388-21.2-21.197zm193.606-151.18-151.191 151.165-21.2-21.197 151.187-151.161c5.847-5.845 15.357-5.845 21.204 0 2.831 2.831 4.39 6.594 4.39 10.596 0 4.003-1.559 7.766-4.39 10.597z"/><path d="m163.417 50.001c8.284 0 15-6.716 15-15v-20.001c0-8.284-6.716-15-15-15s-15 6.716-15 15v20.001c0 8.284 6.716 15 15 15z"/><path d="m163.417 150.006c8.284 0 15-6.716 15-15v-20.001c0-8.284-6.716-15-15-15s-15 6.716-15 15v20.001c0 8.284 6.716 15 15 15z"/><path d="m203.426 90.003h20.004c8.284 0 15-6.716 15-15s-6.716-15-15-15h-20.004c-8.284 0-15 6.716-15 15s6.716 15 15 15z"/><path d="m103.404 90.003h20.004c8.284 0 15-6.716 15-15s-6.716-15-15-15h-20.004c-8.284 0-15 6.716-15 15s6.716 15 15 15z"/><path d="m406.98 352.018c-8.284 0-15 6.716-15 15v20.001c0 8.284 6.716 15 15 15s15-6.716 15-15v-20.001c0-8.284-6.715-15-15-15z"/><path d="m406.98 452.023c-8.284 0-15 6.716-15 15v20.001c0 8.284 6.716 15 15 15s15-6.716 15-15v-20.001c0-8.284-6.715-15-15-15z"/><path d="m466.994 412.021h-20.004c-8.284 0-15 6.716-15 15s6.716 15 15 15h20.004c8.284 0 15-6.716 15-15s-6.716-15-15-15z"/><path d="m366.972 412.021h-20.004c-8.284 0-15 6.716-15 15s6.716 15 15 15h20.004c8.284 0 15-6.716 15-15s-6.716-15-15-15z"/><path d="m50.41 182.62c3.95 0 7.81-1.6 10.6-4.4 2.8-2.79 4.4-6.65 4.4-10.6s-1.6-7.82-4.4-10.61c-2.79-2.79-6.65-4.39-10.6-4.39s-7.82 1.6-10.61 4.39-4.39 6.66-4.39 10.61 1.6 7.81 4.39 10.6c2.79 2.8 6.66 4.4 10.61 4.4z"/><path d="m477.98 241.02c-3.95 0-7.81 1.6-10.61 4.39-2.79 2.79-4.39 6.66-4.39 10.61 0 3.94 1.6 7.81 4.39 10.6 2.79 2.8 6.66 4.4 10.61 4.4s7.81-1.6 10.61-4.4c2.79-2.79 4.39-6.66 4.39-10.6 0-3.95-1.6-7.82-4.39-10.61-2.8-2.79-6.66-4.39-10.61-4.39z"/><path d="m311.89 70.12c3.95 0 7.82-1.6 10.61-4.4 2.79-2.79 4.39-6.65 4.39-10.6s-1.6-7.82-4.39-10.61-6.66-4.39-10.61-4.39-7.81 1.6-10.6 4.39-4.4 6.66-4.4 10.61 1.61 7.81 4.4 10.6c2.79 2.8 6.65 4.4 10.6 4.4z"/></svg>