<svg version="1.1" viewBox="0.0 0.0 480.0 480.0" fill="none" stroke="none" stroke-linecap="square" stroke-miterlimit="10" xmlns:xlink="http://www.w3.org/1999/xlink" xmlns="http://www.w3.org/2000/svg"><clipPath id="p.0"><path d="m0 0l480.0 0l0 480.0l-480.0 0l0 -480.0z" clip-rule="nonzero"/></clipPath><g clip-path="url(#p.0)"><path fill="#000000" fill-opacity="0.0" d="m0 0l480.0 0l0 480.0l-480.0 0z" fill-rule="evenodd"/><path fill="#000000" fill-opacity="0.0" d="m-14.173228 -24.041994l508.34644 0l0 487.74802l-508.34644 0z" fill-rule="evenodd"/><path fill="#6ea791" d="m142.13257 351.26642q-56.531242 0 -88.15625 -30.5625q-31.625 -30.5625 -31.625 -87.796875q0 -59.0 32.140625 -91.15625q32.156254 -32.15625 89.75 -32.15625q16.265625 0 27.5625 2.65625q11.3125 2.640625 21.5625 6.890625q8.125 3.53125 12.0 3.53125q6.71875 0 9.1875 -5.296875l1.421875 -3.546875l9.53125 0l3.546875 66.78125l-11.671875 0q-4.9375 -25.78125 -21.90625 -42.03125q-16.953125 -16.265625 -44.515625 -16.265625q-40.624992 0 -55.828117 33.75q-15.1875 33.734375 -15.1875 74.375q0 48.40625 17.65625 78.265625q17.671875 29.84375 53.359367 29.84375q28.625 0 45.9375 -14.828125q17.3125 -14.84375 25.078125 -37.109375l10.25 4.59375q-8.828125 26.15625 -30.03125 43.109375q-21.203125 16.953125 -60.0625 16.953125zm227.8966 0q-56.53125 0 -88.15625 -30.5625q-31.625015 -30.5625 -31.625015 -87.796875q0 -59.0 32.14064 -91.15625q32.15625 -32.15625 89.75 -32.15625q16.265625 0 27.5625 2.65625q11.3125 2.640625 21.5625 6.890625q8.125 3.53125 12.0 3.53125q6.71875 0 9.1875 -5.296875l1.421875 -3.546875l9.53125 0l3.546875 66.78125l-11.671875 0q-4.9375 -25.78125 -21.90625 -42.03125q-16.953125 -16.265625 -44.515625 -16.265625q-40.625 0 -55.828125 33.75q-15.1875 33.734375 -15.1875 74.375q0 48.40625 17.65625 78.265625q17.671875 29.84375 53.359375 29.84375q28.625 0 45.9375 -14.828125q17.3125 -14.84375 25.078125 -37.109375l10.25 4.59375q-8.828125 26.15625 -30.03125 43.109375q-21.203125 16.953125 -60.0625 16.953125z" fill-rule="nonzero"/></g></svg>