<svg xmlns="http://www.w3.org/2000/svg" xmlns:xlink="http://www.w3.org/1999/xlink" width="800" zoomAndPan="magnify" viewBox="0 0 600 599.999999" height="800" preserveAspectRatio="xMidYMid meet" version="1.0"><defs><clipPath id="bbefb6896d"><path d="M 201.957031 1.546875 L 402 1.546875 L 402 600 L 201.957031 600 Z M 201.957031 1.546875 " clip-rule="nonzero"/></clipPath><clipPath id="f5b0e425ab"><path d="M 3 1.546875 L 203.195312 1.546875 L 203.195312 600 L 3 600 Z M 3 1.546875 " clip-rule="nonzero"/></clipPath><clipPath id="0d7b27470e"><path d="M 400 1.546875 L 599.886719 1.546875 L 599.886719 600 L 400 600 Z M 400 1.546875 " clip-rule="nonzero"/></clipPath><clipPath id="b30ae0f62d"><path d="M 363 250 L 392.460938 250 L 392.460938 265 L 363 265 Z M 363 250 " clip-rule="nonzero"/></clipPath></defs><g clip-path="url(#bbefb6896d)"><path fill="#bed7c5" d="M 401.652344 1.554688 L 401.652344 705.738281 L 201.859375 705.738281 L 201.859375 176.589844 C 201.859375 130.167969 222.789062 85.644531 260.054688 52.820312 C 297.316406 19.996094 347.851562 1.554688 400.554688 1.554688 Z M 401.652344 1.554688 " fill-opacity="1" fill-rule="evenodd"/></g><g clip-path="url(#f5b0e425ab)"><path fill="#85a491" d="M 3.5 1.554688 L 3.5 705.738281 L 203.292969 705.738281 L 203.292969 176.589844 C 203.292969 130.167969 182.363281 85.644531 145.097656 52.820312 C 107.835938 19.996094 57.300781 1.554688 4.597656 1.554688 Z M 3.5 1.554688 " fill-opacity="1" fill-rule="evenodd"/></g><path stroke-linecap="round" transform="matrix(0.75, 0.00000000000000004, -0.00000000000000004, 0.75, 201.852414, 160.654554)" fill="none" stroke-linejoin="miter" d="M 5.998865 6.002262 L 524.86347 6.002262 " stroke="#97682b" stroke-width="12" stroke-opacity="1" stroke-miterlimit="4"/><g clip-path="url(#0d7b27470e)"><path fill="#85a491" d="M 400.191406 1.554688 L 400.191406 705.738281 L 599.984375 705.738281 L 599.984375 176.589844 C 599.984375 130.167969 579.054688 85.644531 541.789062 52.820312 C 504.527344 19.996094 453.992188 1.554688 401.289062 1.554688 Z M 400.191406 1.554688 " fill-opacity="1" fill-rule="evenodd"/></g><path fill="#97682b" d="M 300.996094 225.8125 C 264.769531 225.8125 250.214844 253.816406 250.214844 273.515625 C 250.214844 302.269531 272.742188 323.496094 277.917969 345.804688 L 324.074219 345.804688 C 329.234375 323.496094 351.757812 302.269531 351.757812 273.515625 C 351.757812 253.816406 337.222656 225.8125 300.996094 225.8125 " fill-opacity="1" fill-rule="nonzero"/><path fill="#97682b" d="M 277.917969 367.390625 C 277.917969 374.078125 280.535156 376.695312 287.226562 376.695312 L 288.167969 376.695312 L 289.09375 379.433594 C 290.480469 383.617188 292.171875 384.84375 296.582031 384.84375 L 305.410156 384.84375 C 309.804688 384.84375 311.511719 383.617188 312.898438 379.433594 L 313.808594 376.695312 L 314.769531 376.695312 C 321.441406 376.695312 324.074219 374.078125 324.074219 367.390625 L 324.074219 353.476562 L 277.917969 353.476562 L 277.917969 367.390625 " fill-opacity="1" fill-rule="nonzero"/><path fill="#97682b" d="M 300.996094 213.960938 C 303.789062 213.960938 305.605469 212.148438 305.605469 209.355469 L 305.605469 189.035156 C 305.605469 186.242188 303.789062 184.425781 300.996094 184.425781 C 298.183594 184.425781 296.386719 186.242188 296.386719 189.050781 L 296.386719 209.355469 C 296.386719 212.148438 298.183594 213.960938 300.996094 213.960938 " fill-opacity="1" fill-rule="nonzero"/><path fill="#97682b" d="M 341.777344 226.132812 C 343.984375 227.839844 346.527344 227.539062 348.253906 225.332031 L 360.761719 209.335938 C 362.488281 207.113281 362.167969 204.566406 359.960938 202.84375 C 357.753906 201.117188 355.210938 201.4375 353.484375 203.640625 L 340.976562 219.636719 C 339.25 221.863281 339.570312 224.40625 341.777344 226.132812 " fill-opacity="1" fill-rule="nonzero"/><g clip-path="url(#b30ae0f62d)"><path fill="#97682b" d="M 392.648438 254.296875 C 391.96875 251.558594 389.765625 250.242188 387.042969 250.917969 L 367.34375 255.847656 C 364.625 256.523438 363.304688 258.710938 363.984375 261.433594 C 364.660156 264.15625 366.847656 265.472656 369.570312 264.796875 L 389.285156 259.886719 C 392.007812 259.210938 393.324219 257.003906 392.648438 254.296875 " fill-opacity="1" fill-rule="nonzero"/></g><path fill="#97682b" d="M 382.84375 307.960938 L 364.304688 299.707031 C 361.742188 298.566406 359.339844 299.492188 358.199219 302.054688 C 357.0625 304.617188 357.988281 307 360.546875 308.140625 L 379.089844 316.394531 C 381.652344 317.550781 384.054688 316.625 385.191406 314.0625 C 386.332031 311.519531 385.40625 309.117188 382.84375 307.960938 " fill-opacity="1" fill-rule="nonzero"/><path fill="#97682b" d="M 253.738281 225.332031 C 255.464844 227.539062 258.007812 227.839844 260.214844 226.132812 C 262.421875 224.40625 262.742188 221.863281 261.015625 219.636719 L 248.507812 203.640625 C 246.78125 201.4375 244.238281 201.117188 242.03125 202.84375 C 239.824219 204.566406 239.503906 207.113281 241.230469 209.320312 L 253.738281 225.332031 " fill-opacity="1" fill-rule="nonzero"/><path fill="#97682b" d="M 238.011719 261.433594 C 238.6875 258.710938 237.371094 256.523438 234.648438 255.828125 L 214.933594 250.917969 C 212.210938 250.242188 210.023438 251.558594 209.347656 254.28125 C 208.667969 257.003906 209.988281 259.210938 212.707031 259.886719 L 232.40625 264.796875 C 235.128906 265.472656 237.332031 264.15625 238.011719 261.433594 " fill-opacity="1" fill-rule="nonzero"/><path fill="#97682b" d="M 237.691406 299.707031 L 219.132812 307.980469 C 216.570312 309.117188 215.664062 311.519531 216.800781 314.0625 C 217.941406 316.625 220.34375 317.550781 222.886719 316.414062 L 241.445312 308.140625 C 244.007812 307 244.929688 304.617188 243.792969 302.054688 C 242.652344 299.492188 240.25 298.566406 237.691406 299.707031 " fill-opacity="1" fill-rule="nonzero"/></svg>