<svg xmlns="http://www.w3.org/2000/svg" xmlns:xlink="http://www.w3.org/1999/xlink" width="800" zoomAndPan="magnify" viewBox="0 0 600 599.999999" height="800" preserveAspectRatio="xMidYMid meet" version="1.0"><defs><clipPath id="25f5c89f67"><path d="M 191.148438 3.667969 L 380 3.667969 L 380 600 L 191.148438 600 Z M 191.148438 3.667969 " clip-rule="nonzero"/></clipPath><clipPath id="6e24e85d84"><path d="M 3 3.667969 L 192.445312 3.667969 L 192.445312 600 L 3 600 Z M 3 3.667969 " clip-rule="nonzero"/></clipPath><clipPath id="4752a97f1d"><path d="M 192.574219 41.054688 L 321 41.054688 L 321 494 L 192.574219 494 Z M 192.574219 41.054688 " clip-rule="nonzero"/></clipPath><clipPath id="3845f55bd3"><path d="M 378 3.667969 L 566.976562 3.667969 L 566.976562 600 L 378 600 Z M 378 3.667969 " clip-rule="nonzero"/></clipPath><clipPath id="deb22ccb41"><path d="M 41.675781 121.710938 L 192.425781 121.710938 L 192.425781 600 L 41.675781 600 Z M 41.675781 121.710938 " clip-rule="nonzero"/></clipPath><clipPath id="5c5ca14352"><path d="M 356 129 L 404 129 L 404 506 L 356 506 Z M 356 129 " clip-rule="nonzero"/></clipPath><clipPath id="c1ce36b926"><path d="M 356 130.910156 L 386.203125 129.496094 L 403.714844 504.304688 L 373.515625 505.714844 Z M 356 130.910156 " clip-rule="nonzero"/></clipPath><clipPath id="066c5d8b46"><path d="M 413 41.230469 L 566.949219 41.230469 L 566.949219 259.480469 L 413 259.480469 Z M 413 41.230469 " clip-rule="nonzero"/></clipPath><clipPath id="daadc01c02"><path d="M 451.769531 153.167969 L 509.742188 153.167969 L 509.742188 211.136719 L 451.769531 211.136719 Z M 451.769531 153.167969 " clip-rule="nonzero"/></clipPath><clipPath id="3db27383cc"><path d="M 460.828125 153.167969 L 500.683594 153.167969 C 503.085938 153.167969 505.390625 154.121094 507.085938 155.820312 C 508.785156 157.519531 509.742188 159.820312 509.742188 162.222656 L 509.742188 202.078125 C 509.742188 207.082031 505.683594 211.136719 500.683594 211.136719 L 460.828125 211.136719 C 458.425781 211.136719 456.121094 210.179688 454.425781 208.484375 C 452.726562 206.785156 451.769531 204.480469 451.769531 202.078125 L 451.769531 162.222656 C 451.769531 157.222656 455.828125 153.167969 460.828125 153.167969 Z M 460.828125 153.167969 " clip-rule="nonzero"/></clipPath><clipPath id="2b3f058f56"><path d="M 413.757812 255.363281 L 568.730469 255.363281 L 568.730469 373.863281 L 413.757812 373.863281 Z M 413.757812 255.363281 " clip-rule="nonzero"/></clipPath><clipPath id="50fb1c9631"><path d="M 366.289062 162.96875 L 425.566406 162.96875 L 425.566406 275.734375 L 366.289062 275.734375 Z M 366.289062 162.96875 " clip-rule="nonzero"/></clipPath><clipPath id="2951aacd7c"><path d="M 375.347656 162.96875 L 416.507812 162.96875 C 418.910156 162.96875 421.214844 163.921875 422.914062 165.621094 C 424.609375 167.320312 425.566406 169.625 425.566406 172.027344 L 425.566406 266.488281 C 425.566406 271.488281 421.511719 275.546875 416.507812 275.546875 L 375.347656 275.546875 C 372.945312 275.546875 370.640625 274.589844 368.941406 272.890625 C 367.242188 271.195312 366.289062 268.890625 366.289062 266.488281 L 366.289062 172.027344 C 366.289062 167.023438 370.34375 162.96875 375.347656 162.96875 Z M 375.347656 162.96875 " clip-rule="nonzero"/></clipPath></defs><g clip-path="url(#25f5c89f67)"><path fill="#85a491" d="M 379.789062 3.675781 L 379.789062 668.527344 L 191.15625 668.527344 L 191.15625 168.933594 C 191.15625 125.105469 210.917969 83.070312 246.101562 52.078125 C 281.28125 21.089844 328.996094 3.675781 378.753906 3.675781 Z M 379.789062 3.675781 " fill-opacity="1" fill-rule="evenodd"/></g><g clip-path="url(#6e24e85d84)"><path fill="#88513f" d="M 3.871094 3.675781 L 3.871094 668.527344 L 192.503906 668.527344 L 192.503906 168.933594 C 192.503906 125.105469 172.742188 83.070312 137.558594 52.078125 C 102.378906 21.089844 54.664062 3.675781 4.910156 3.675781 Z M 3.871094 3.675781 " fill-opacity="1" fill-rule="evenodd"/></g><path stroke-linecap="butt" transform="matrix(0.580107, 0.47537, -0.47537, 0.580107, 33.850941, -32.611594)" fill="none" stroke-linejoin="miter" d="M 15.635618 81.489586 C 102.397122 4.170766 221.130714 4.169153 371.842998 81.492805 " stroke="#5b362b" stroke-width="47" stroke-opacity="1" stroke-miterlimit="4"/><g clip-path="url(#4752a97f1d)"><path fill="#85a491" d="M 320.960938 41.0625 L 320.960938 493.726562 L 192.527344 493.726562 L 192.527344 153.578125 C 192.527344 123.738281 205.984375 95.117188 229.9375 74.015625 C 253.890625 52.914062 286.378906 41.0625 320.253906 41.0625 Z M 320.960938 41.0625 " fill-opacity="1" fill-rule="evenodd"/></g><g clip-path="url(#3845f55bd3)"><path fill="#88513f" d="M 378.40625 3.675781 L 378.40625 668.527344 L 567.039062 668.527344 L 567.039062 168.933594 C 567.039062 125.105469 547.277344 83.070312 512.09375 52.078125 C 476.914062 21.089844 429.199219 3.675781 379.441406 3.675781 Z M 378.40625 3.675781 " fill-opacity="1" fill-rule="evenodd"/></g><path stroke-linecap="butt" transform="matrix(0, 0.75, -0.75, 0, 39.522237, 31.39526)" fill="none" stroke-linejoin="miter" d="M -0.000972121 23.498401 L 759.275102 23.498401 " stroke="#5b362b" stroke-width="47" stroke-opacity="1" stroke-miterlimit="4"/><g clip-path="url(#deb22ccb41)"><path fill="#9c6b5f" d="M 38.304688 121.71875 L 38.304688 665.226562 L 192.511719 665.226562 L 192.511719 256.8125 C 192.511719 220.984375 176.355469 186.621094 147.59375 161.285156 C 118.835938 135.949219 79.828125 121.71875 39.152344 121.71875 Z M 38.304688 121.71875 " fill-opacity="1" fill-rule="evenodd"/></g><g clip-path="url(#5c5ca14352)"><g clip-path="url(#c1ce36b926)"><path fill="#85a491" d="M 356 130.910156 L 386.203125 129.496094 L 403.714844 504.304688 L 373.515625 505.714844 Z M 356 130.910156 " fill-opacity="1" fill-rule="nonzero"/></g></g><g clip-path="url(#066c5d8b46)"><path fill="#9c6b5f" d="M 413.042969 41.0625 L 413.042969 583.863281 L 567.046875 583.863281 L 567.046875 175.984375 C 567.046875 140.199219 550.914062 105.882812 522.1875 80.578125 C 493.46875 55.277344 454.511719 41.0625 413.890625 41.0625 Z M 413.042969 41.0625 " fill-opacity="1" fill-rule="evenodd"/></g><path stroke-linecap="round" transform="matrix(0.580107, 0.47537, -0.47537, 0.580107, 413.685391, -40.536273)" fill="none" stroke-linejoin="miter" d="M 33.80126 78.756098 C 125.021356 4.207602 231.331626 5.093835 352.743428 81.412223 " stroke="#5b362b" stroke-width="47" stroke-opacity="1" stroke-miterlimit="4"/><g clip-path="url(#daadc01c02)"><g clip-path="url(#3db27383cc)"><path fill="#85a491" d="M 451.769531 153.167969 L 509.742188 153.167969 L 509.742188 211.136719 L 451.769531 211.136719 Z M 451.769531 153.167969 " fill-opacity="1" fill-rule="nonzero"/></g></g><g clip-path="url(#2b3f058f56)"><path fill="#9c6b5f" d="M 409.941406 373.855469 L 409.941406 -186.742188 L 568.996094 -186.742188 L 568.996094 234.511719 C 568.996094 271.46875 552.332031 306.910156 522.667969 333.042969 C 493.003906 359.175781 452.769531 373.855469 410.816406 373.855469 Z M 409.941406 373.855469 " fill-opacity="1" fill-rule="evenodd"/></g><path stroke-linecap="butt" transform="matrix(-0.000896418, 0.749999, -0.749999, -0.000896418, 413.548399, 29.200886)" fill="none" stroke-linejoin="miter" d="M -0.000174398 23.502049 L 766.43266 23.497448 " stroke="#5b362b" stroke-width="47" stroke-opacity="1" stroke-miterlimit="4"/><path stroke-linecap="butt" transform="matrix(0.609727, 0.43673, -0.43673, 0.609727, 404.635879, -35.167508)" fill="none" stroke-linejoin="miter" d="M 15.085701 82.140144 C 108.472165 3.955228 216.445125 3.950758 339.002177 82.141268 " stroke="#5b362b" stroke-width="47" stroke-opacity="1" stroke-miterlimit="4"/><g clip-path="url(#50fb1c9631)"><g clip-path="url(#2951aacd7c)"><path fill="#97682b" d="M 366.289062 162.96875 L 425.566406 162.96875 L 425.566406 275.5 L 366.289062 275.5 Z M 366.289062 162.96875 " fill-opacity="1" fill-rule="nonzero"/></g></g></svg>