<svg id="washing" enable-background="new 0 0 512 512" height="512" viewBox="0 0 512 512" width="512" xmlns="http://www.w3.org/2000/svg"><path d="m431.502 454.5c-1.362 0-2.719-.553-3.706-1.641l-123.913-136.623c-24.007 21.863-44.422 21.516-47.955 21.275-2.813.138-19.841.734-40.525-3.971-6.346-1.443-12.385-3.246-18.091-5.391l-113.108 124.71c-1.855 2.045-5.019 2.198-7.063.345-2.045-1.855-2.2-5.018-.345-7.063l110.776-122.138c-14.723-7.059-26.781-16.688-35.659-28.559-16.509 15.4-34.164 25.523-48.645 32.01-26.823 12.014-48.334 14.421-49.236 14.518-1.412.147-2.819-.305-3.875-1.253s-1.657-2.3-1.657-3.719v-153c0-1.364.557-2.668 1.542-3.611.985-.944 2.313-1.447 3.675-1.384 4.166.181 99.224 4.744 139.023 42.55 4.212-5.425 8.398-10.08 12.5-14.079l-128.443-141.617c-1.855-2.045-1.701-5.208.345-7.063 2.044-1.855 5.207-1.702 7.063.345l128.495 141.675c21.979-17.874 40.064-17.559 43.372-17.327 2.809-.14 19.781-.734 40.418 3.946 4.128.936 8.129 2.024 11.99 3.26l119.316-131.554c1.854-2.044 5.016-2.201 7.063-.345 2.045 1.855 2.199 5.017.345 7.063l-116.587 128.544c17.379 7.213 31.452 17.757 41.47 31.152 16.509-15.401 34.164-25.523 48.645-32.009 26.823-12.014 48.334-14.421 49.236-14.518 1.411-.151 2.819.305 3.874 1.253 1.056.948 1.658 2.3 1.658 3.719v153c0 1.363-.557 2.668-1.542 3.611-.984.942-2.309 1.444-3.675 1.384-4.166-.181-99.225-4.744-139.023-42.55-2.771 3.569-5.535 6.809-8.268 9.744l124.212 136.951c1.854 2.046 1.7 5.208-.345 7.063-.957.869-2.16 1.297-3.357 1.297zm-106.299-163.218c31.404 31.193 107.657 38.861 128.297 40.39v-141.828c-7.878 1.45-23.344 5.023-40.997 12.97-23.274 10.477-55.282 30.959-75.591 69.038-3.863 7.245-7.782 13.69-11.709 19.43zm-266.703-101.953v141.828c7.878-1.45 23.344-5.024 40.997-12.971 23.275-10.478 55.282-30.96 75.592-69.039 3.863-7.244 7.781-13.688 11.708-19.429-31.404-31.194-107.657-38.862-128.297-40.389zm146.138 130.744c26.051 8.765 50.644 7.462 51.054 7.437.286-.02.576-.011.86.021.057.005 9.402.793 22.722-6.076 5.092-2.626 11.2-6.616 17.85-12.671l-41.124-45.342zm-45.548-31.751c9.506 13.238 22.348 22.042 35.556 27.882l54.604-60.204-37.248-41.067c-8.906 8.727-18.626 21.174-28.091 38.92-7.177 13.46-15.712 24.848-24.821 34.469zm103.66-32.322 41.462 45.715c7.712-8.379 15.886-19.585 23.876-34.567 7.179-13.46 15.714-24.849 24.822-34.47-10.94-15.246-26.264-24.605-41.49-30.339zm-43.28-47.72 36.53 40.278 45.005-49.621c-23.564-6.603-44.317-5.47-44.693-5.447-.286.018-.576.011-.864-.021-.052-.003-9.398-.795-22.722 6.076-3.895 2.01-8.384 4.816-13.256 8.735z" fill="rgb(0,0,0)"/></svg>