<svg id="washing" enable-background="new 0 0 512 512" height="512" viewBox="0 0 512 512" width="512" xmlns="http://www.w3.org/2000/svg"><path d="m494.495 409.501c-.811 0-1.633-.198-2.396-.614l-76.133-41.658-2.049 11.173c-.436 2.374-2.504 4.099-4.918 4.099h-305.999c-2.414 0-4.483-1.725-4.918-4.099l-2.048-11.173-76.134 41.658c-2.422 1.324-5.46.436-6.786-1.986-1.326-2.423-.437-5.461 1.986-6.787l79.034-43.245-33.772-184.217-45.262-24.766c-2.423-1.326-3.312-4.364-1.986-6.786 1.326-2.423 4.364-3.313 6.786-1.986l38.139 20.868-9.457-51.58c-.498-2.716 1.3-5.322 4.016-5.82 2.713-.496 5.322 1.3 5.82 4.016l10.92 59.567 2.468 1.35c6.531-2.975 11.292-8.289 16.274-13.851 8.257-9.217 17.616-19.664 35.975-19.664 18.354 0 27.709 10.447 35.963 19.665 7.85 8.765 14.629 16.335 28.514 16.335h2.988c13.884 0 20.664-7.57 28.513-16.335 8.255-9.218 17.611-19.665 35.967-19.665 18.358 0 27.718 10.447 35.975 19.664 7.852 8.766 14.634 16.336 28.525 16.336 13.885 0 20.664-7.57 28.514-16.335 8.255-9.218 17.611-19.665 35.967-19.665 18.364 0 27.726 10.446 35.985 19.663 5.594 6.242 10.59 11.816 17.948 14.553l3.747-2.05 10.921-59.567c.499-2.716 3.108-4.513 5.819-4.016 2.717.498 4.515 3.104 4.017 5.82l-9.456 51.58 38.138-20.868c2.424-1.327 5.462-.437 6.787 1.986 1.325 2.422.436 5.46-1.986 6.786l-45.262 24.766-33.772 184.216 79.034 43.245c2.422 1.326 3.312 4.364 1.986 6.787-.909 1.66-2.623 2.6-4.392 2.6zm-387.328-37.001h297.667l1.894-10.327-150.728-82.474-150.727 82.474zm159.249-98.5 142.21 77.813 31.678-172.788c-.073-.017-.147-.033-.221-.05zm-194.754-95.165 31.712 172.978 142.21-77.813zm10.393-5.712 173.945 95.178 172.325-94.292c-5.977-3.82-10.554-8.928-14.807-13.673-7.855-8.766-14.64-16.336-28.537-16.336-13.888 0-20.667 7.571-28.518 16.336-8.255 9.217-17.61 19.664-35.963 19.664-18.358 0-27.718-10.447-35.975-19.664-7.852-8.766-14.633-16.336-28.525-16.336-13.887 0-20.667 7.571-28.518 16.336-8.254 9.217-17.609 19.664-35.962 19.664h-2.988c-18.354 0-27.709-10.447-35.963-19.665-7.85-8.765-14.629-16.335-28.514-16.335-13.892 0-20.673 7.57-28.526 16.336-3.911 4.367-8.129 9.075-13.474 12.787z" fill="rgb(0,0,0)"/></svg>