<svg id="washing" enable-background="new 0 0 512 512" height="512" viewBox="0 0 512 512" width="512" xmlns="http://www.w3.org/2000/svg"><path d="m341.504 463.501c-1.834 0-3.6-1.013-4.476-2.765l-31.5-63c-1.235-2.47-.234-5.474 2.235-6.708 2.471-1.236 5.474-.234 6.708 2.235l31.5 63c1.235 2.47.234 5.474-2.235 6.708-.717.36-1.481.53-2.232.53zm-171.008 0c-.751 0-1.514-.17-2.232-.529-2.47-1.234-3.471-4.238-2.236-6.708l31.5-63c1.234-2.47 4.238-3.472 6.708-2.235 2.47 1.234 3.471 4.238 2.236 6.708l-31.5 63c-.876 1.751-2.642 2.764-4.476 2.764zm85.504-.001c-2.761 0-5-2.238-5-5v-63c0-2.762 2.239-5 5-5 2.762 0 5 2.238 5 5v63c0 2.762-2.238 5-5 5zm202.5 0c-1.279 0-2.56-.488-3.535-1.465l-102.036-102.035h-193.857l-102.036 102.035c-1.953 1.953-5.118 1.953-7.071 0-1.953-1.952-1.953-5.118 0-7.07l94.964-94.965h-68.929c-2.761 0-5-2.238-5-5 0-74.745 44.549-139.275 108.496-168.433l-129.531-129.531c-1.953-1.953-1.953-5.119 0-7.071s5.118-1.952 7.071 0l132.413 132.413c20.661-7.993 43.103-12.378 66.551-12.378h78.929l59.039-59.039-7.268-47.961h-225.2c-2.761 0-5-2.239-5-5s2.239-5 5-5h229.5c2.473 0 4.573 1.807 4.943 4.251l6.808 44.927 52.214-52.214c1.951-1.952 5.119-1.952 7.07 0 1.953 1.953 1.953 5.119 0 7.071l-57.424 57.424 36.332 239.792c.219 1.44-.202 2.904-1.152 4.009s-2.334 1.74-3.791 1.74h-68.929l94.964 94.965c1.953 1.952 1.953 5.118 0 7.07-.975.977-2.255 1.465-3.535 1.465zm-101.428-113.5h73.114l-25.758-170h-65.356l-76 76zm-188 0h173.857l-86.929-86.929zm-88.001 0h73.858l94-94-61.854-61.854c-60.877 26.186-104.033 85.958-106.004 155.854zm116.154-159.847 58.775 58.776 68.929-68.929h-68.929c-20.608 0-40.398 3.582-58.775 10.153zm151.847-20.153h53.842l-7.085-46.757z" fill="rgb(0,0,0)"/></svg>