<svg id="icons" viewBox="0 0 48 48" xmlns="http://www.w3.org/2000/svg"><g id="desktop-download"><path id="desktop-download-2" d="m41.5 7.001h-35c-1.93 0-3.5 1.57-3.5 3.5v22c0 1.93 1.57 3.5 3.5 3.5h13.5v3h-4c-.553 0-1 .448-1 1s.447 1 1 1h16c.553 0 1-.448 1-1s-.447-1-1-1h-4v-3h13.5c1.93 0 3.5-1.57 3.5-3.5v-22c0-1.93-1.57-3.5-3.5-3.5zm-35 2h35c.827 0 1.5.673 1.5 1.5v18.5h-38v-18.5c0-.827.673-1.5 1.5-1.5zm19.5 30h-4v-3h4zm15.5-5h-35c-.827 0-1.5-.673-1.5-1.5v-1.5h38v1.5c0 .827-.673 1.5-1.5 1.5zm-21.207-11.294c-.391-.391-.391-1.023 0-1.414s1.023-.391 1.414 0l1.293 1.293v-8.586c0-.552.447-1 1-1s1 .448 1 1v8.586l1.293-1.293c.391-.391 1.023-.391 1.414 0s.391 1.023 0 1.414l-2.646 2.646c-.292.292-.677.438-1.061.438s-.769-.146-1.061-.438z" data-name="desktop-download"/></g></svg>