<svg xmlns="http://www.w3.org/2000/svg" xmlns:xlink="http://www.w3.org/1999/xlink" width="800" zoomAndPan="magnify" viewBox="0 0 600 599.999999" height="800" preserveAspectRatio="xMidYMid meet" version="1.0"><defs><clipPath id="76ea68f1b1"><path d="M 164 60 L 308 60 L 308 203 L 164 203 Z M 164 60 " clip-rule="nonzero"/></clipPath><clipPath id="8865e4837a"><path d="M 74 397 L 218 397 L 218 540 L 74 540 Z M 74 397 " clip-rule="nonzero"/></clipPath><clipPath id="3f20d1aa95"><path d="M 164 60 L 308 60 L 308 203 L 164 203 Z M 164 60 " clip-rule="nonzero"/></clipPath><clipPath id="01254c572b"><path d="M 74 397 L 218 397 L 218 540 L 74 540 Z M 74 397 " clip-rule="nonzero"/></clipPath></defs><path fill="#287e60" d="M 590.398438 140.699219 L 297.601562 140.699219 C 292.398438 140.699219 288.101562 136.398438 288.101562 131.199219 C 288.101562 126 292.300781 121.699219 297.601562 121.699219 L 590.398438 121.699219 C 595.601562 121.699219 599.898438 126 599.898438 131.199219 C 599.898438 136.398438 595.699219 140.699219 590.398438 140.699219 Z M 173.699219 140.699219 L 9.601562 140.699219 C 4.398438 140.699219 0.101562 136.398438 0.101562 131.199219 C 0.101562 126 4.300781 121.699219 9.601562 121.699219 L 173.699219 121.699219 C 178.898438 121.699219 183.199219 126 183.199219 131.199219 C 183.199219 136.398438 179 140.699219 173.699219 140.699219 Z M 173.699219 140.699219 " fill-opacity="1" fill-rule="nonzero"/><path fill="#287e60" d="M 590.398438 309.398438 L 495.699219 309.398438 C 490.5 309.398438 486.199219 305.101562 486.199219 299.898438 C 486.199219 294.699219 490.398438 290.398438 495.699219 290.398438 L 590.398438 290.398438 C 595.601562 290.398438 599.898438 294.699219 599.898438 299.898438 C 599.898438 305.101562 595.699219 309.398438 590.398438 309.398438 Z M 371.800781 309.398438 L 9.601562 309.398438 C 4.398438 309.398438 0.101562 305.101562 0.101562 299.898438 C 0.101562 294.699219 4.300781 290.398438 9.601562 290.398438 L 371.898438 290.398438 C 377.101562 290.398438 381.398438 294.699219 381.398438 299.898438 C 381.398438 305.101562 377.199219 309.398438 371.898438 309.398438 Z M 371.800781 309.398438 " fill-opacity="1" fill-rule="nonzero"/><path fill="#287e60" d="M 590.398438 478 L 208.300781 478 C 203.101562 478 198.800781 473.699219 198.800781 468.5 C 198.800781 463.300781 203 459 208.300781 459 L 590.398438 459 C 595.601562 459 599.898438 463.300781 599.898438 468.5 C 599.898438 473.699219 595.699219 478 590.398438 478 Z M 84.398438 478 L 9.601562 478 C 4.398438 478 0.101562 473.699219 0.101562 468.5 C 0.101562 463.300781 4.300781 459 9.601562 459 L 84.398438 459 C 89.601562 459 93.898438 463.300781 93.898438 468.5 C 93.898438 473.699219 89.699219 478 84.398438 478 Z M 84.398438 478 " fill-opacity="1" fill-rule="nonzero"/><g clip-path="url(#76ea68f1b1)"><path fill="#287e60" d="M 235.5 202.800781 C 196.199219 202.800781 164.199219 170.699219 164.199219 131.199219 C 164.199219 91.699219 196.199219 59.898438 235.5 59.898438 C 274.800781 59.898438 307.101562 91.898438 307.101562 131.199219 C 307.101562 170.5 275 202.800781 235.5 202.800781 Z M 235.5 78.898438 C 206.699219 78.898438 183.199219 102.398438 183.199219 131.199219 C 183.199219 160 206.699219 183.800781 235.5 183.800781 C 264.300781 183.800781 288.101562 160.199219 288.101562 131.199219 C 288.101562 102.199219 264.5 78.898438 235.5 78.898438 Z M 235.5 78.898438 " fill-opacity="1" fill-rule="nonzero"/></g><path fill="#287e60" d="M 433.898438 371.398438 C 394.398438 371.398438 362.300781 339.300781 362.300781 299.800781 C 362.300781 260.300781 394.398438 228.5 433.898438 228.5 C 473.398438 228.5 505.199219 260.5 505.199219 299.800781 C 505.199219 339.101562 473.199219 371.398438 433.898438 371.398438 Z M 433.898438 247.5 C 404.898438 247.5 381.300781 271 381.300781 299.800781 C 381.300781 328.601562 404.898438 352.398438 433.898438 352.398438 C 462.898438 352.398438 486.199219 328.800781 486.199219 299.800781 C 486.199219 270.800781 462.699219 247.5 433.898438 247.5 Z M 433.898438 247.5 " fill-opacity="1" fill-rule="nonzero"/><g clip-path="url(#8865e4837a)"><path fill="#287e60" d="M 146.5 540.101562 C 107 540.101562 74.898438 508 74.898438 468.5 C 74.898438 429 107 397.199219 146.5 397.199219 C 186 397.199219 217.800781 429.199219 217.800781 468.5 C 217.800781 507.800781 185.800781 540.101562 146.5 540.101562 Z M 146.5 416.199219 C 117.5 416.199219 93.898438 439.699219 93.898438 468.5 C 93.898438 497.300781 117.5 521.101562 146.5 521.101562 C 175.5 521.101562 198.800781 497.5 198.800781 468.5 C 198.800781 439.5 175.300781 416.199219 146.5 416.199219 Z M 146.5 416.199219 " fill-opacity="1" fill-rule="nonzero"/></g><path fill="#287e60" d="M 590.398438 140.699219 L 297.601562 140.699219 C 292.398438 140.699219 288.101562 136.398438 288.101562 131.199219 C 288.101562 126 292.300781 121.699219 297.601562 121.699219 L 590.398438 121.699219 C 595.601562 121.699219 599.898438 126 599.898438 131.199219 C 599.898438 136.398438 595.699219 140.699219 590.398438 140.699219 Z M 173.699219 140.699219 L 9.601562 140.699219 C 4.398438 140.699219 0.101562 136.398438 0.101562 131.199219 C 0.101562 126 4.300781 121.699219 9.601562 121.699219 L 173.699219 121.699219 C 178.898438 121.699219 183.199219 126 183.199219 131.199219 C 183.199219 136.398438 179 140.699219 173.699219 140.699219 Z M 173.699219 140.699219 " fill-opacity="1" fill-rule="nonzero"/><path fill="#287e60" d="M 590.398438 309.398438 L 495.699219 309.398438 C 490.5 309.398438 486.199219 305.101562 486.199219 299.898438 C 486.199219 294.699219 490.398438 290.398438 495.699219 290.398438 L 590.398438 290.398438 C 595.601562 290.398438 599.898438 294.699219 599.898438 299.898438 C 599.898438 305.101562 595.699219 309.398438 590.398438 309.398438 Z M 371.800781 309.398438 L 9.601562 309.398438 C 4.398438 309.398438 0.101562 305.101562 0.101562 299.898438 C 0.101562 294.699219 4.300781 290.398438 9.601562 290.398438 L 371.898438 290.398438 C 377.101562 290.398438 381.398438 294.699219 381.398438 299.898438 C 381.398438 305.101562 377.199219 309.398438 371.898438 309.398438 Z M 371.800781 309.398438 " fill-opacity="1" fill-rule="nonzero"/><path fill="#287e60" d="M 590.398438 478 L 208.300781 478 C 203.101562 478 198.800781 473.699219 198.800781 468.5 C 198.800781 463.300781 203 459 208.300781 459 L 590.398438 459 C 595.601562 459 599.898438 463.300781 599.898438 468.5 C 599.898438 473.699219 595.699219 478 590.398438 478 Z M 84.398438 478 L 9.601562 478 C 4.398438 478 0.101562 473.699219 0.101562 468.5 C 0.101562 463.300781 4.300781 459 9.601562 459 L 84.398438 459 C 89.601562 459 93.898438 463.300781 93.898438 468.5 C 93.898438 473.699219 89.699219 478 84.398438 478 Z M 84.398438 478 " fill-opacity="1" fill-rule="nonzero"/><g clip-path="url(#3f20d1aa95)"><path fill="#287e60" d="M 235.5 202.800781 C 196.199219 202.800781 164.199219 170.699219 164.199219 131.199219 C 164.199219 91.699219 196.199219 59.898438 235.5 59.898438 C 274.800781 59.898438 307.101562 91.898438 307.101562 131.199219 C 307.101562 170.5 275 202.800781 235.5 202.800781 Z M 235.5 78.898438 C 206.699219 78.898438 183.199219 102.398438 183.199219 131.199219 C 183.199219 160 206.699219 183.800781 235.5 183.800781 C 264.300781 183.800781 288.101562 160.199219 288.101562 131.199219 C 288.101562 102.199219 264.5 78.898438 235.5 78.898438 Z M 235.5 78.898438 " fill-opacity="1" fill-rule="nonzero"/></g><path fill="#287e60" d="M 433.898438 371.398438 C 394.398438 371.398438 362.300781 339.300781 362.300781 299.800781 C 362.300781 260.300781 394.398438 228.5 433.898438 228.5 C 473.398438 228.5 505.199219 260.5 505.199219 299.800781 C 505.199219 339.101562 473.199219 371.398438 433.898438 371.398438 Z M 433.898438 247.5 C 404.898438 247.5 381.300781 271 381.300781 299.800781 C 381.300781 328.601562 404.898438 352.398438 433.898438 352.398438 C 462.898438 352.398438 486.199219 328.800781 486.199219 299.800781 C 486.199219 270.800781 462.699219 247.5 433.898438 247.5 Z M 433.898438 247.5 " fill-opacity="1" fill-rule="nonzero"/><g clip-path="url(#01254c572b)"><path fill="#287e60" d="M 146.5 540.101562 C 107 540.101562 74.898438 508 74.898438 468.5 C 74.898438 429 107 397.199219 146.5 397.199219 C 186 397.199219 217.800781 429.199219 217.800781 468.5 C 217.800781 507.800781 185.800781 540.101562 146.5 540.101562 Z M 146.5 416.199219 C 117.5 416.199219 93.898438 439.699219 93.898438 468.5 C 93.898438 497.300781 117.5 521.101562 146.5 521.101562 C 175.5 521.101562 198.800781 497.5 198.800781 468.5 C 198.800781 439.5 175.300781 416.199219 146.5 416.199219 Z M 146.5 416.199219 " fill-opacity="1" fill-rule="nonzero"/></g></svg>