<svg id="washing" enable-background="new 0 0 512 512" height="512" viewBox="0 0 512 512" width="512" xmlns="http://www.w3.org/2000/svg"><path d="m427 463.5h-342c-2.761 0-5-2.238-5-5s2.239-5 5-5h342c2.762 0 5 2.238 5 5s-2.238 5-5 5zm0-31.5h-342c-2.761 0-5-2.238-5-5s2.239-5 5-5h342c2.762 0 5 2.238 5 5s-2.238 5-5 5zm0-31.5h-342c-2.761 0-5-2.238-5-5v-342c0-2.761 2.239-5 5-5h342c2.762 0 5 2.239 5 5v342c0 2.762-2.238 5-5 5zm-112.482-10h107.482v-107.482c-17.696 50.049-57.432 89.786-107.482 107.482zm-224.518-166c0 91.532 74.467 166 166 166 91.532 0 166-74.468 166-166 0-91.533-74.468-166-166-166s-166 74.467-166 166zm0 166h107.483c-50.05-17.696-89.786-57.433-107.483-107.482zm224.518-332c50.05 17.696 89.786 57.433 107.482 107.483v-107.483zm-224.518 0v107.483c17.696-50.05 57.433-89.787 107.483-107.483z" fill="rgb(0,0,0)"/></svg>