<?xml version="1.0" encoding="iso-8859-1"?>
<!-- Generator: Adobe Illustrator 19.0.0, SVG Export Plug-In . SVG Version: 6.00 Build 0)  -->
<svg fill="#d4d4d4" version="1.1" id="Layer_1" xmlns="http://www.w3.org/2000/svg" xmlns:xlink="http://www.w3.org/1999/xlink" x="0px" y="0px"
	 viewBox="0 0 479.985 479.985" style="enable-background:new 0 0 479.985 479.985;" xml:space="preserve">
<g>
	<g>
		<path d="M468.361,378.96L261.273,192.416c-3.36-3.024-5.28-7.36-5.28-11.888v-3.264c0-6.352,3.392-12.016,8.432-14.112
			c27.984-11.584,43.824-40.624,38.56-70.624c-4.528-25.808-25.712-47.008-51.536-51.536c-18.96-3.312-38.096,1.76-52.608,13.968
			c-14.512,12.192-22.848,30.064-22.848,49.024c0,8.832,7.152,16,16,16s16-7.168,16-16c0-9.472,4.176-18.416,11.44-24.528
			c7.36-6.192,16.752-8.656,26.496-6.96c12.576,2.208,23.328,12.96,25.536,25.552c2.672,15.12-5.248,29.712-19.248,35.504
			c-17.152,7.104-28.224,24.256-28.224,43.712v3.28c0,13.584,5.776,26.592,15.872,35.664l207.072,186.544
			c0.48,0.432,1.504,1.344,0.832,3.104c-0.544,1.408-1.68,2.128-3.392,2.128H35.609c-1.696,0-2.848-0.72-3.392-2.144
			c-0.672-1.744,0.336-2.672,0.832-3.104l155.952-140.512c6.576-5.92,7.088-16.032,1.184-22.608
			c-5.92-6.592-16.064-7.088-22.592-1.184L11.625,378.944c-10.848,9.76-14.48,24.816-9.296,38.352
			c5.312,13.792,18.352,22.688,33.28,22.688h408.784c14.928,0,27.968-8.896,33.264-22.672
			C482.841,403.776,479.209,388.72,468.361,378.96z"/>
	</g>
</g>
<g>
</g>
<g>
</g>
<g>
</g>
<g>
</g>
<g>
</g>
<g>
</g>
<g>
</g>
<g>
</g>
<g>
</g>
<g>
</g>
<g>
</g>
<g>
</g>
<g>
</g>
<g>
</g>
<g>
</g>
</svg>
