<svg id="washing" enable-background="new 0 0 512 512" height="512" viewBox="0 0 512 512" width="512" xmlns="http://www.w3.org/2000/svg"><path d="m458.5 414h-405c-2.761 0-5-2.238-5-5 0-102.01 82.991-185 185-185h192.74l-17.059-116h-229.681c-2.761 0-5-2.239-5-5s2.239-5 5-5h234c2.48 0 4.586 1.818 4.947 4.272l45 306c.211 1.438-.214 2.896-1.163 3.996-.95 1.1-2.331 1.732-3.784 1.732zm-399.929-10h394.141l-25-170h-194.212c-94.823 0-172.273 75.808-174.929 170zm197.429-62c-12.682 0-23-10.317-23-23s10.318-23 23-23c12.683 0 23 10.317 23 23s-10.317 23-23 23zm0-36c-7.168 0-13 5.832-13 13s5.832 13 13 13 13-5.832 13-13-5.832-13-13-13z" fill="rgb(0,0,0)"/></svg>