<svg xmlns="http://www.w3.org/2000/svg" xmlns:xlink="http://www.w3.org/1999/xlink" width="400" zoomAndPan="magnify" viewBox="0 0 300 74.999997" height="100" preserveAspectRatio="xMidYMid meet" version="1.0"><defs><g/></defs><g fill="#000000" fill-opacity="1"><g transform="translate(9.292974, 69.250096)"><g><path d="M 5.515625 -1.203125 C 4.484375 -1.859375 3.71875 -2.882812 3.21875 -4.28125 C 2.726562 -5.675781 2.375 -7.140625 2.15625 -8.671875 C 1.945312 -10.203125 1.84375 -11.628906 1.84375 -12.953125 L 1.84375 -15.9375 C 1.84375 -16.445312 1.863281 -17.492188 1.90625 -19.078125 C 1.957031 -20.660156 2.03125 -22.5 2.125 -24.59375 C 2.21875 -26.695312 2.3125 -28.941406 2.40625 -31.328125 C 2.5 -33.710938 2.59375 -35.953125 2.6875 -38.046875 C 2.78125 -40.148438 2.863281 -41.976562 2.9375 -43.53125 C 3.007812 -45.09375 3.046875 -46.132812 3.046875 -46.65625 C 3.046875 -47.363281 3.054688 -48.585938 3.078125 -50.328125 C 3.097656 -52.078125 3.109375 -53.929688 3.109375 -55.890625 C 3.109375 -57.847656 3.097656 -59.703125 3.078125 -61.453125 C 3.054688 -63.203125 3.046875 -64.429688 3.046875 -65.140625 C 3.753906 -65.660156 4.367188 -66.015625 4.890625 -66.203125 C 5.359375 -66.390625 5.78125 -66.421875 6.15625 -66.296875 C 6.53125 -66.179688 6.71875 -65.796875 6.71875 -65.140625 L 6.71875 -7.359375 C 6.71875 -7.035156 6.820312 -6.644531 7.03125 -6.1875 C 7.25 -5.738281 7.523438 -5.347656 7.859375 -5.015625 C 8.191406 -4.691406 8.582031 -4.492188 9.03125 -4.421875 C 9.476562 -4.347656 9.9375 -4.523438 10.40625 -4.953125 L 18.96875 -12.25 C 19.207031 -11.164062 19.1875 -10.03125 18.90625 -8.84375 C 18.625 -7.664062 18.160156 -6.554688 17.515625 -5.515625 C 16.878906 -4.484375 16.085938 -3.539062 15.140625 -2.6875 C 14.203125 -1.84375 13.191406 -1.195312 12.109375 -0.75 C 11.023438 -0.300781 9.914062 -0.0859375 8.78125 -0.109375 C 7.644531 -0.128906 6.554688 -0.492188 5.515625 -1.203125 Z M 5.515625 -1.203125 "/></g></g></g><g fill="#000000" fill-opacity="1"><g transform="translate(26.920467, 69.250096)"><g><path d="M 3.046875 -1.203125 C 2.097656 -3.179688 1.585938 -5.1875 1.515625 -7.21875 C 1.453125 -9.25 1.5625 -11.328125 1.84375 -13.453125 C 1.882812 -14.109375 2 -15.097656 2.1875 -16.421875 C 2.382812 -17.742188 2.597656 -19.207031 2.828125 -20.8125 C 3.066406 -22.414062 3.328125 -24.113281 3.609375 -25.90625 C 3.890625 -27.707031 4.148438 -29.410156 4.390625 -31.015625 C 4.628906 -32.617188 4.851562 -34.046875 5.0625 -35.296875 C 5.269531 -36.546875 5.421875 -37.476562 5.515625 -38.09375 C 5.898438 -40.070312 6.316406 -41.753906 6.765625 -43.140625 C 7.210938 -44.535156 7.820312 -45.609375 8.59375 -46.359375 C 9.375 -47.117188 10.390625 -47.523438 11.640625 -47.578125 C 12.890625 -47.628906 14.507812 -47.320312 16.5 -46.65625 C 16.726562 -46.613281 16.984375 -46.4375 17.265625 -46.125 C 17.554688 -45.820312 17.722656 -45.597656 17.765625 -45.453125 C 17.859375 -44.835938 18.035156 -43.890625 18.296875 -42.609375 C 18.554688 -41.335938 18.851562 -39.890625 19.1875 -38.265625 C 19.519531 -36.640625 19.863281 -34.941406 20.21875 -33.171875 C 20.570312 -31.398438 20.910156 -29.695312 21.234375 -28.0625 C 21.566406 -26.4375 21.863281 -24.988281 22.125 -23.71875 C 22.382812 -22.445312 22.585938 -21.503906 22.734375 -20.890625 C 23.441406 -17.535156 24.3125 -15.207031 25.34375 -13.90625 C 26.382812 -12.613281 27.492188 -11.941406 28.671875 -11.890625 C 29.847656 -11.847656 31.0625 -12.238281 32.3125 -13.0625 C 33.570312 -13.882812 34.8125 -14.753906 36.03125 -15.671875 C 37.257812 -16.597656 38.414062 -17.390625 39.5 -18.046875 C 40.59375 -18.710938 41.539062 -18.832031 42.34375 -18.40625 C 42.34375 -17.507812 42.128906 -16.632812 41.703125 -15.78125 C 41.273438 -14.9375 40.765625 -14.144531 40.171875 -13.40625 C 39.585938 -12.675781 38.941406 -12.003906 38.234375 -11.390625 C 37.523438 -10.785156 36.863281 -10.269531 36.25 -9.84375 C 33.601562 -8.09375 31.394531 -7.171875 29.625 -7.078125 C 27.851562 -6.984375 26.351562 -7.382812 25.125 -8.28125 C 23.90625 -9.175781 22.914062 -10.398438 22.15625 -11.953125 C 21.40625 -13.515625 20.734375 -15.097656 20.140625 -16.703125 C 19.554688 -18.304688 18.988281 -19.734375 18.4375 -20.984375 C 17.894531 -22.242188 17.25 -23.035156 16.5 -23.359375 C 16.351562 -22.742188 16.054688 -21.679688 15.609375 -20.171875 C 15.160156 -18.660156 14.675781 -17.054688 14.15625 -15.359375 C 13.632812 -13.660156 13.140625 -12.054688 12.671875 -10.546875 C 12.203125 -9.035156 11.875 -7.972656 11.6875 -7.359375 C 11.59375 -7.128906 11.390625 -6.679688 11.078125 -6.015625 C 10.773438 -5.359375 10.382812 -4.640625 9.90625 -3.859375 C 9.4375 -3.078125 8.90625 -2.320312 8.3125 -1.59375 C 7.726562 -0.863281 7.128906 -0.300781 6.515625 0.09375 C 5.898438 0.5 5.285156 0.628906 4.671875 0.484375 C 4.054688 0.347656 3.515625 -0.210938 3.046875 -1.203125 Z M 6.71875 -22.09375 C 6.625 -21.519531 6.566406 -20.476562 6.546875 -18.96875 C 6.523438 -17.457031 6.515625 -15.851562 6.515625 -14.15625 C 6.515625 -12.457031 6.523438 -10.851562 6.546875 -9.34375 C 6.566406 -7.832031 6.625 -6.769531 6.71875 -6.15625 C 8.375 -8.65625 9.863281 -11.566406 11.1875 -14.890625 C 12.507812 -18.222656 13.507812 -21.671875 14.1875 -25.234375 C 14.875 -28.804688 15.144531 -32.347656 15 -35.859375 C 14.863281 -39.378906 14.160156 -42.578125 12.890625 -45.453125 C 12.085938 -43.992188 11.332031 -42.15625 10.625 -39.9375 C 9.914062 -37.71875 9.300781 -35.460938 8.78125 -33.171875 C 8.257812 -30.878906 7.820312 -28.726562 7.46875 -26.71875 C 7.113281 -24.71875 6.863281 -23.175781 6.71875 -22.09375 Z M 6.71875 -22.09375 "/></g></g></g><g fill="#000000" fill-opacity="1"><g transform="translate(62.812592, 69.250096)"><g><path d="M 5.515625 -1.203125 C 4.390625 -2.054688 3.550781 -3.25 3 -4.78125 C 2.457031 -6.3125 2.175781 -7.75 2.15625 -9.09375 C 2.132812 -10.4375 2.3125 -11.472656 2.6875 -12.203125 C 3.0625 -12.941406 3.582031 -12.957031 4.25 -12.25 C 4.15625 -9.695312 4.625 -7.757812 5.65625 -6.4375 C 6.695312 -5.113281 7.960938 -4.285156 9.453125 -3.953125 C 10.941406 -3.628906 12.519531 -3.726562 14.1875 -4.25 C 15.863281 -4.769531 17.300781 -5.582031 18.5 -6.6875 C 19.707031 -7.800781 20.535156 -9.160156 20.984375 -10.765625 C 21.441406 -12.367188 21.195312 -14.09375 20.25 -15.9375 C 19.019531 -17.300781 17.640625 -18.628906 16.109375 -19.921875 C 14.578125 -21.222656 13.03125 -22.507812 11.46875 -23.78125 C 9.914062 -25.0625 8.40625 -26.375 6.9375 -27.71875 C 5.476562 -29.0625 4.179688 -30.488281 3.046875 -32 C 2.953125 -32.09375 2.90625 -32.289062 2.90625 -32.59375 C 2.90625 -32.90625 2.953125 -33.109375 3.046875 -33.203125 C 3.378906 -33.628906 3.847656 -34.289062 4.453125 -35.1875 C 5.066406 -36.082031 5.773438 -37.097656 6.578125 -38.234375 C 7.378906 -39.367188 8.226562 -40.5625 9.125 -41.8125 C 10.03125 -43.0625 10.882812 -44.25 11.6875 -45.375 C 12.488281 -46.507812 13.207031 -47.523438 13.84375 -48.421875 C 14.476562 -49.316406 14.960938 -49.976562 15.296875 -50.40625 C 15.953125 -51.257812 16.625 -51.753906 17.3125 -51.890625 C 18 -52.035156 18.976562 -51.941406 20.25 -51.609375 C 20.195312 -51.421875 20.003906 -51.007812 19.671875 -50.375 C 19.347656 -49.738281 19.113281 -49.328125 18.96875 -49.140625 C 18.59375 -48.566406 17.882812 -47.582031 16.84375 -46.1875 C 15.8125 -44.800781 14.703125 -43.316406 13.515625 -41.734375 C 12.335938 -40.148438 11.226562 -38.660156 10.1875 -37.265625 C 9.15625 -35.878906 8.425781 -34.925781 8 -34.40625 C 7.625 -33.84375 7.765625 -33.179688 8.421875 -32.421875 C 9.085938 -31.671875 10.03125 -30.820312 11.25 -29.875 C 12.476562 -28.9375 13.867188 -27.890625 15.421875 -26.734375 C 16.984375 -25.578125 18.460938 -24.335938 19.859375 -23.015625 C 21.253906 -21.691406 22.429688 -20.273438 23.390625 -18.765625 C 24.359375 -17.253906 24.878906 -15.632812 24.953125 -13.90625 C 25.023438 -12.1875 24.53125 -10.382812 23.46875 -8.5 C 22.40625 -6.613281 20.503906 -4.609375 17.765625 -2.484375 C 16.921875 -1.816406 15.988281 -1.25 14.96875 -0.78125 C 13.957031 -0.3125 12.910156 0.00390625 11.828125 0.171875 C 10.742188 0.335938 9.65625 0.328125 8.5625 0.140625 C 7.476562 -0.046875 6.460938 -0.492188 5.515625 -1.203125 Z M 5.515625 -1.203125 "/></g></g></g><g fill="#000000" fill-opacity="1"><g transform="translate(89.218436, 69.250096)"><g><path d="M 20.25 -4.953125 C 19.207031 -6.703125 18.40625 -8.671875 17.84375 -10.859375 C 17.28125 -13.054688 16.878906 -15.3125 16.640625 -17.625 C 16.398438 -19.9375 16.289062 -22.222656 16.3125 -24.484375 C 16.34375 -26.753906 16.40625 -28.835938 16.5 -30.734375 C 15.832031 -30.921875 15.070312 -30.867188 14.21875 -30.578125 C 13.375 -30.296875 12.476562 -29.929688 11.53125 -29.484375 C 10.59375 -29.035156 9.628906 -28.550781 8.640625 -28.03125 C 7.648438 -27.519531 6.726562 -27.144531 5.875 -26.90625 C 5.03125 -26.664062 4.253906 -26.613281 3.546875 -26.75 C 2.835938 -26.894531 2.269531 -27.394531 1.84375 -28.25 C 1.414062 -29.050781 1.445312 -29.6875 1.9375 -30.15625 C 2.4375 -30.632812 3.171875 -31 4.140625 -31.25 C 5.109375 -31.507812 6.226562 -31.695312 7.5 -31.8125 C 8.78125 -31.9375 9.984375 -32.09375 11.109375 -32.28125 C 12.242188 -32.46875 13.210938 -32.710938 14.015625 -33.015625 C 14.816406 -33.328125 15.242188 -33.789062 15.296875 -34.40625 L 17.765625 -61.390625 C 17.816406 -61.804688 18.039062 -62.132812 18.4375 -62.375 C 18.84375 -62.613281 19.269531 -62.734375 19.71875 -62.734375 C 20.164062 -62.734375 20.566406 -62.625 20.921875 -62.40625 C 21.273438 -62.195312 21.453125 -61.859375 21.453125 -61.390625 L 21.453125 -38.09375 C 22.109375 -37.945312 22.742188 -37.957031 23.359375 -38.125 C 23.972656 -38.289062 24.585938 -38.488281 25.203125 -38.71875 C 25.816406 -38.957031 26.414062 -39.144531 27 -39.28125 C 27.59375 -39.425781 28.222656 -39.429688 28.890625 -39.296875 C 29.171875 -38.773438 29.117188 -38.289062 28.734375 -37.84375 C 28.359375 -37.394531 27.984375 -37.050781 27.609375 -36.8125 L 26.34375 -36.03125 C 25.769531 -35.707031 25.164062 -35.34375 24.53125 -34.9375 C 23.894531 -34.539062 23.28125 -34.175781 22.6875 -33.84375 C 22.101562 -33.507812 21.691406 -33.296875 21.453125 -33.203125 C 21.398438 -32.546875 21.363281 -31.398438 21.34375 -29.765625 C 21.320312 -28.140625 21.3125 -26.40625 21.3125 -24.5625 C 21.3125 -22.726562 21.320312 -20.992188 21.34375 -19.359375 C 21.363281 -17.734375 21.398438 -16.59375 21.453125 -15.9375 C 21.640625 -13.71875 22.0625 -11.6875 22.71875 -9.84375 C 23.382812 -8 24.28125 -6.554688 25.40625 -5.515625 C 26.539062 -4.484375 27.898438 -3.96875 29.484375 -3.96875 C 31.066406 -3.96875 32.921875 -4.695312 35.046875 -6.15625 C 35.378906 -5.070312 35.351562 -4.101562 34.96875 -3.25 C 34.59375 -2.40625 33.976562 -1.734375 33.125 -1.234375 C 32.28125 -0.742188 31.269531 -0.425781 30.09375 -0.28125 C 28.914062 -0.144531 27.722656 -0.21875 26.515625 -0.5 C 25.304688 -0.78125 24.132812 -1.285156 23 -2.015625 C 21.875 -2.742188 20.957031 -3.722656 20.25 -4.953125 Z M 20.25 -4.953125 "/></g></g></g><g fill="#000000" fill-opacity="1"><g transform="translate(120.721386, 69.250096)"><g/></g></g><g fill="#000000" fill-opacity="1"><g transform="translate(156.967477, 69.250096)"><g><path d="M 25.140625 -3.6875 C 24.472656 -4.8125 23.867188 -6.378906 23.328125 -8.390625 C 22.785156 -10.398438 22.300781 -12.460938 21.875 -14.578125 C 21.445312 -16.703125 21.09375 -18.6875 20.8125 -20.53125 C 20.53125 -22.320312 20.34375 -23.644531 20.25 -24.5 C 20.101562 -23.644531 19.820312 -22.394531 19.40625 -20.75 C 18.976562 -19.09375 18.410156 -17.304688 17.703125 -15.390625 C 16.992188 -13.484375 16.164062 -11.570312 15.21875 -9.65625 C 14.28125 -7.75 13.234375 -6.109375 12.078125 -4.734375 C 10.921875 -3.367188 9.679688 -2.425781 8.359375 -1.90625 C 7.035156 -1.394531 5.664062 -1.585938 4.25 -2.484375 C 4.15625 -2.523438 4.035156 -2.695312 3.890625 -3 C 3.753906 -3.3125 3.625 -3.664062 3.5 -4.0625 C 3.382812 -4.46875 3.28125 -4.859375 3.1875 -5.234375 C 3.09375 -5.617188 3.046875 -5.925781 3.046875 -6.15625 L 3.046875 -35.6875 C 2.335938 -37.007812 1.9375 -38.101562 1.84375 -38.96875 C 1.75 -39.84375 1.84375 -40.515625 2.125 -40.984375 C 2.40625 -41.460938 2.789062 -41.757812 3.28125 -41.875 C 3.78125 -42 4.289062 -41.976562 4.8125 -41.8125 C 5.332031 -41.644531 5.78125 -41.347656 6.15625 -40.921875 C 6.53125 -40.492188 6.71875 -39.953125 6.71875 -39.296875 L 6.71875 -9.84375 L 8 -6.15625 C 10.3125 -7.757812 12.175781 -9.71875 13.59375 -12.03125 C 15.007812 -14.34375 16.09375 -16.820312 16.84375 -19.46875 C 17.601562 -22.113281 18.125 -24.828125 18.40625 -27.609375 C 18.6875 -30.398438 18.875 -33.09375 18.96875 -35.6875 C 19.207031 -35.726562 19.523438 -35.769531 19.921875 -35.8125 C 20.328125 -35.863281 20.71875 -35.851562 21.09375 -35.78125 C 21.476562 -35.71875 21.820312 -35.578125 22.125 -35.359375 C 22.425781 -35.148438 22.628906 -34.832031 22.734375 -34.40625 L 27.609375 -8.640625 L 30.09375 -3.6875 C 31.175781 -4.4375 32 -5.753906 32.5625 -7.640625 C 33.132812 -9.535156 33.535156 -11.78125 33.765625 -14.375 C 34.003906 -16.96875 34.132812 -19.773438 34.15625 -22.796875 C 34.1875 -25.816406 34.1875 -28.835938 34.15625 -31.859375 C 34.132812 -34.878906 34.160156 -37.757812 34.234375 -40.5 C 34.304688 -43.238281 34.53125 -45.597656 34.90625 -47.578125 C 35.28125 -49.554688 35.859375 -51.039062 36.640625 -52.03125 C 37.421875 -53.03125 38.492188 -53.289062 39.859375 -52.8125 C 40.804688 -52.53125 41.253906 -52 41.203125 -51.21875 C 41.160156 -50.445312 40.914062 -49.644531 40.46875 -48.8125 C 40.019531 -47.988281 39.519531 -47.234375 38.96875 -46.546875 C 38.425781 -45.867188 38.132812 -45.503906 38.09375 -45.453125 L 38.09375 -12.25 C 38.09375 -11.300781 37.890625 -10.210938 37.484375 -8.984375 C 37.085938 -7.765625 36.554688 -6.578125 35.890625 -5.421875 C 35.234375 -4.265625 34.476562 -3.210938 33.625 -2.265625 C 32.78125 -1.316406 31.875 -0.6875 30.90625 -0.375 C 29.9375 -0.0703125 28.957031 -0.144531 27.96875 -0.59375 C 26.976562 -1.050781 26.035156 -2.082031 25.140625 -3.6875 Z M 25.140625 -3.6875 "/></g></g></g><g fill="#000000" fill-opacity="1"><g transform="translate(200.576054, 69.250096)"><g><path d="M 7.15625 -3.6875 C 5.96875 -5.425781 5.253906 -7.367188 5.015625 -9.515625 C 4.785156 -11.671875 4.785156 -13.925781 5.015625 -16.28125 C 5.253906 -18.644531 5.632812 -21.03125 6.15625 -23.4375 C 6.675781 -25.84375 7.125 -28.164062 7.5 -30.40625 C 7.882812 -32.644531 8.097656 -34.742188 8.140625 -36.703125 C 8.191406 -38.671875 7.863281 -40.359375 7.15625 -41.765625 C 6.769531 -42.523438 6.257812 -42.890625 5.625 -42.859375 C 4.988281 -42.835938 4.304688 -42.742188 3.578125 -42.578125 C 2.847656 -42.421875 2.113281 -42.363281 1.375 -42.40625 C 0.644531 -42.457031 0 -42.90625 -0.5625 -43.75 C -0.519531 -43.9375 -0.34375 -44.179688 -0.03125 -44.484375 C 0.269531 -44.796875 0.492188 -44.976562 0.640625 -45.03125 C 4.890625 -45.644531 8.441406 -45.207031 11.296875 -43.71875 C 14.148438 -42.226562 16.425781 -40.125 18.125 -37.40625 C 19.820312 -34.695312 20.988281 -31.597656 21.625 -28.109375 C 22.257812 -24.617188 22.484375 -21.148438 22.296875 -17.703125 C 22.109375 -14.253906 21.566406 -11.054688 20.671875 -8.109375 C 19.773438 -5.160156 18.640625 -2.878906 17.265625 -1.265625 C 15.898438 0.335938 14.34375 1.039062 12.59375 0.84375 C 10.851562 0.65625 9.039062 -0.851562 7.15625 -3.6875 Z M 10.828125 -6.15625 C 10.878906 -6.019531 11.019531 -5.832031 11.25 -5.59375 C 11.488281 -5.351562 11.738281 -5.09375 12 -4.8125 C 12.257812 -4.53125 12.503906 -4.28125 12.734375 -4.0625 C 12.972656 -3.851562 13.140625 -3.726562 13.234375 -3.6875 C 14.984375 -4.675781 16.28125 -6.019531 17.125 -7.71875 C 17.976562 -9.414062 18.488281 -11.300781 18.65625 -13.375 C 18.820312 -15.457031 18.726562 -17.640625 18.375 -19.921875 C 18.019531 -22.210938 17.507812 -24.421875 16.84375 -26.546875 C 16.1875 -28.671875 15.421875 -30.628906 14.546875 -32.421875 C 13.671875 -34.222656 12.832031 -35.6875 12.03125 -36.8125 C 11.988281 -36.195312 11.894531 -35.253906 11.75 -33.984375 C 11.613281 -32.710938 11.472656 -31.273438 11.328125 -29.671875 C 11.179688 -28.066406 11.015625 -26.363281 10.828125 -24.5625 C 10.640625 -22.769531 10.460938 -21.0625 10.296875 -19.4375 C 10.128906 -17.8125 9.972656 -16.359375 9.828125 -15.078125 C 9.691406 -13.804688 9.601562 -12.863281 9.5625 -12.25 C 9.507812 -11.78125 9.519531 -11.25 9.59375 -10.65625 C 9.664062 -10.0625 9.769531 -9.484375 9.90625 -8.921875 C 10.050781 -8.359375 10.207031 -7.828125 10.375 -7.328125 C 10.539062 -6.828125 10.691406 -6.4375 10.828125 -6.15625 Z M 10.828125 -6.15625 "/></g></g></g><g fill="#000000" fill-opacity="1"><g transform="translate(224.928897, 69.250096)"><g><path d="M 7.015625 -0.78125 C 6.253906 0.78125 5.613281 1.570312 5.09375 1.59375 C 4.570312 1.613281 4.132812 1.09375 3.78125 0.03125 C 3.425781 -1.03125 3.144531 -2.523438 2.9375 -4.453125 C 2.726562 -6.390625 2.585938 -8.535156 2.515625 -10.890625 C 2.441406 -13.253906 2.425781 -15.734375 2.46875 -18.328125 C 2.519531 -20.929688 2.601562 -23.4375 2.71875 -25.84375 C 2.84375 -28.25 3 -30.453125 3.1875 -32.453125 C 3.375 -34.460938 3.570312 -36.046875 3.78125 -37.203125 C 4 -38.359375 4.222656 -38.984375 4.453125 -39.078125 C 4.691406 -39.171875 4.929688 -38.535156 5.171875 -37.171875 C 6.679688 -38.304688 8.304688 -39.378906 10.046875 -40.390625 C 11.796875 -41.410156 13.601562 -42.257812 15.46875 -42.9375 C 17.332031 -43.625 19.21875 -44.0625 21.125 -44.25 C 23.039062 -44.4375 24.894531 -44.269531 26.6875 -43.75 C 26.875 -43.132812 26.894531 -42.425781 26.75 -41.625 C 26.613281 -40.820312 26.171875 -40.304688 25.421875 -40.078125 C 24.660156 -40.210938 23.664062 -40.28125 22.4375 -40.28125 C 21.21875 -40.28125 19.921875 -40.1875 18.546875 -40 C 17.179688 -39.8125 15.8125 -39.503906 14.4375 -39.078125 C 13.070312 -38.648438 11.832031 -38.09375 10.71875 -37.40625 C 9.613281 -36.726562 8.71875 -35.90625 8.03125 -34.9375 C 7.351562 -33.96875 7.015625 -32.820312 7.015625 -31.5 Z M 7.015625 -0.78125 "/></g></g></g><g fill="#000000" fill-opacity="1"><g transform="translate(254.803604, 69.250096)"><g><path d="M 4.953125 -1.203125 C 5.003906 -1.816406 5.03125 -2.878906 5.03125 -4.390625 L 5.03125 -14.015625 C 5.03125 -15.523438 5.003906 -16.585938 4.953125 -17.203125 C 4.910156 -17.484375 4.828125 -18.097656 4.703125 -19.046875 C 4.585938 -19.992188 4.445312 -21.101562 4.28125 -22.375 C 4.113281 -23.644531 3.9375 -24.988281 3.75 -26.40625 C 3.5625 -27.820312 3.375 -29.164062 3.1875 -30.4375 C 3 -31.71875 2.84375 -32.828125 2.71875 -33.765625 C 2.601562 -34.710938 2.523438 -35.351562 2.484375 -35.6875 C 2.390625 -36.34375 2.351562 -37.023438 2.375 -37.734375 C 2.394531 -38.441406 2.519531 -39.054688 2.75 -39.578125 C 2.988281 -40.097656 3.367188 -40.460938 3.890625 -40.671875 C 4.410156 -40.890625 5.164062 -40.832031 6.15625 -40.5 C 6.207031 -39.507812 6.289062 -38.335938 6.40625 -36.984375 C 6.519531 -35.640625 6.671875 -34.238281 6.859375 -32.78125 C 7.054688 -31.320312 7.296875 -29.882812 7.578125 -28.46875 C 7.859375 -27.050781 8.210938 -25.75 8.640625 -24.5625 C 9.253906 -26.3125 9.851562 -27.859375 10.4375 -29.203125 C 11.03125 -30.546875 11.703125 -31.785156 12.453125 -32.921875 C 13.210938 -34.054688 14.0625 -35.128906 15 -36.140625 C 15.945312 -37.160156 17.082031 -38.210938 18.40625 -39.296875 C 20.0625 -40.660156 21.441406 -41.210938 22.546875 -40.953125 C 23.660156 -40.691406 24.582031 -39.890625 25.3125 -38.546875 C 26.039062 -37.203125 26.640625 -35.46875 27.109375 -33.34375 C 27.585938 -31.21875 28.015625 -28.960938 28.390625 -26.578125 C 28.765625 -24.203125 29.148438 -21.867188 29.546875 -19.578125 C 29.953125 -17.285156 30.460938 -15.300781 31.078125 -13.625 C 31.691406 -11.945312 32.457031 -10.71875 33.375 -9.9375 C 34.300781 -9.164062 35.472656 -9.132812 36.890625 -9.84375 C 37.316406 -8.570312 37.375 -7.640625 37.0625 -7.046875 C 36.757812 -6.453125 36.238281 -6.117188 35.5 -6.046875 C 34.769531 -5.984375 33.910156 -6.175781 32.921875 -6.625 C 31.929688 -7.070312 30.953125 -7.679688 29.984375 -8.453125 C 29.015625 -9.234375 28.148438 -10.164062 27.390625 -11.25 C 26.640625 -12.34375 26.125 -13.503906 25.84375 -14.734375 C 25.65625 -15.578125 25.488281 -16.96875 25.34375 -18.90625 C 25.207031 -20.84375 24.992188 -22.921875 24.703125 -25.140625 C 24.421875 -27.359375 23.984375 -29.539062 23.390625 -31.6875 C 22.804688 -33.832031 21.972656 -35.539062 20.890625 -36.8125 L 15.9375 -32 C 15.789062 -31.8125 15.445312 -30.960938 14.90625 -29.453125 C 14.363281 -27.941406 13.757812 -26.207031 13.09375 -24.25 C 12.4375 -22.289062 11.800781 -20.304688 11.1875 -18.296875 C 10.570312 -16.296875 10.125 -14.679688 9.84375 -13.453125 C 9.75 -13.023438 9.628906 -12.234375 9.484375 -11.078125 C 9.347656 -9.921875 9.207031 -8.679688 9.0625 -7.359375 C 8.914062 -6.035156 8.804688 -4.796875 8.734375 -3.640625 C 8.671875 -2.484375 8.640625 -1.671875 8.640625 -1.203125 C 8.210938 -0.347656 7.597656 0.078125 6.796875 0.078125 C 5.992188 0.078125 5.378906 -0.347656 4.953125 -1.203125 Z M 4.953125 -1.203125 "/></g></g></g></svg>