<?xml version="1.0" encoding="iso-8859-1"?>
<!-- Generator: Adobe Illustrator 19.0.0, SVG Export Plug-In . SVG Version: 6.00 Build 0)  -->
<svg fill="#287e60" version="1.1" id="Capa_1" xmlns="http://www.w3.org/2000/svg" xmlns:xlink="http://www.w3.org/1999/xlink" x="0px" y="0px"
	 viewBox="0 0 512.009 512.009" style="enable-background:new 0 0 512.009 512.009;" xml:space="preserve">
<g>
	<g>
		<path d="M503.421,85.566c-5.479-1.208-11.375,2.562-12.542,8.364l-14.667,73.328c-6.211-3.191-11.122-8.294-16.75-14.435
			c-10.125-11.051-22.729-24.801-46.979-24.801s-36.833,13.749-46.958,24.801c-9.125,9.979-16.354,17.864-31.188,17.864
			c-14.854,0-22.063-7.885-31.208-17.864c-10.125-11.051-22.729-24.801-46.979-24.801c-24.229,0-36.833,13.749-46.938,24.79
			c-9.167,9.989-16.396,17.874-31.25,17.874c-14.875,0-22.125-7.885-31.292-17.874c-10.125-11.041-22.75-24.79-47.021-24.79
			c-24.271,0-36.875,13.739-47,24.79c-5.658,6.159-10.592,11.282-16.849,14.473L21.129,93.93c-1.167-5.802-7.063-9.583-12.542-8.364
			c-5.792,1.156-9.542,6.77-8.375,12.551l58.854,294.253c3.979,19.874,21.583,34.3,41.833,34.3h310.208
			c20.25,0,37.854-14.426,41.833-34.3l58.854-294.253C512.963,92.337,509.213,86.722,503.421,85.566z M432.025,388.184
			c-2,9.937-10.792,17.155-20.917,17.155H100.9c-10.125,0-18.917-7.218-20.917-17.155L40.068,188.617
			c12.586-4.647,20.918-13.352,28.29-21.389c9.167-9.989,16.417-17.874,31.292-17.874c14.896,0,22.146,7.895,31.313,17.884
			c10.125,11.041,22.75,24.78,47,24.78s36.854-13.749,46.979-24.801c9.146-9.979,16.354-17.864,31.208-17.864
			c14.854,0,22.083,7.885,31.25,17.874c10.104,11.041,22.708,24.79,46.938,24.79c24.229,0,36.813-13.749,46.938-24.79
			c9.146-9.989,16.354-17.874,31.208-17.874s22.083,7.885,31.25,17.874c7.349,8.037,15.664,16.736,28.208,21.383L432.025,388.184z"
			/>
	</g>
</g>
<g>
</g>
<g>
</g>
<g>
</g>
<g>
</g>
<g>
</g>
<g>
</g>
<g>
</g>
<g>
</g>
<g>
</g>
<g>
</g>
<g>
</g>
<g>
</g>
<g>
</g>
<g>
</g>
<g>
</g>
</svg>
