<svg id="washing" enable-background="new 0 0 512 512" height="512" viewBox="0 0 512 512" width="512" xmlns="http://www.w3.org/2000/svg"><path d="m409 396h-306c-2.414 0-4.483-1.725-4.918-4.099l-49.5-270c-.498-2.716 1.3-5.322 4.016-5.82 2.72-.498 5.322 1.3 5.82 4.016l11.322 61.757c7.616-2.719 12.839-8.55 18.34-14.691 8.256-9.217 17.614-19.664 35.974-19.664 18.354 0 27.709 10.447 35.963 19.665 7.85 8.765 14.629 16.335 28.514 16.335h2.988c13.884 0 20.664-7.57 28.513-16.335 8.255-9.218 17.611-19.665 35.967-19.665 18.355 0 27.714 10.446 35.97 19.662 7.854 8.767 14.636 16.338 28.53 16.338 13.888 0 20.667-7.571 28.518-16.336 8.255-9.217 17.61-19.664 35.963-19.664 18.364 0 27.725 10.446 35.982 19.662 6.373 7.112 11.96 13.347 21.146 15.52l11.474-62.583c.499-2.716 3.108-4.513 5.819-4.016 2.717.498 4.515 3.104 4.017 5.82l-49.5 270c-.435 2.373-2.504 4.098-4.918 4.098zm-301.833-10h297.667l35.471-193.475c-12.555-2.806-20.081-11.205-26.788-18.69-7.854-8.766-14.638-16.335-28.535-16.335-13.885 0-20.664 7.57-28.514 16.335-8.255 9.218-17.611 19.665-35.967 19.665-18.361 0-27.721-10.448-35.979-19.666-7.852-8.764-14.633-16.334-28.522-16.334-13.887 0-20.667 7.571-28.518 16.336-8.254 9.217-17.61 19.664-35.963 19.664h-2.988c-18.354 0-27.709-10.447-35.963-19.665-7.85-8.765-14.629-16.335-28.514-16.335-13.892 0-20.673 7.57-28.525 16.336-6.451 7.202-13.11 14.636-23.968 17.951zm148.833-84.5c-12.682 0-23-10.317-23-23s10.318-23 23-23c12.683 0 23 10.317 23 23s-10.317 23-23 23zm0-36c-7.168 0-13 5.832-13 13s5.832 13 13 13 13-5.832 13-13-5.832-13-13-13z" fill="rgb(0,0,0)"/></svg>