<svg id="Layer_1" enable-background="new 0 0 512 512" height="512" viewBox="0 0 512 512" width="512" xmlns="http://www.w3.org/2000/svg"><path d="m479.194 144.292c3.977-3.577 7.208-6.596 9.585-8.972 30.671-30.661 31.251-80.853-.002-112.097-31.244-31.253-81.436-30.673-112.097-.002-2.742 2.742-6.335 6.617-10.661 11.472-38.747-22.732-82.07-34.693-126.086-34.693-8.284 0-15 6.716-15 15s6.716 15 15 15c37.438 0 73.063 9.35 106.133 27.813-93.179 110.297-331.346 415.168-342.89 429.95-4.663 5.971-4.138 14.485 1.219 19.841 5.357 5.357 13.871 5.882 19.841 1.219 14.872-11.613 323.345-252.595 431.928-344.562 42.168 72.209 29.776 170.25-17.078 237.514-32.358-30.11-73.555-56.372-118.822-56.372-43.708 0-79.267 35.559-79.267 79.267s35.559 79.267 79.267 79.267c66.404 0 110.722-46.312 120.839-57.042 26.311 29.628 42.791 57.384 42.966 57.681 3.579 6.086 12.439 10.085 20.534 5.324 7.141-4.201 9.523-13.394 5.323-20.535-1.593-2.708-19.956-33.493-49.448-65.901 59.256-79.17 68.925-200.974 18.716-279.172zm-81.301-99.857c19.125-19.131 50.281-19.395 69.669-.001 19.398 19.393 19.131 50.554.008 69.67-1.488 1.488-3.359 3.265-5.579 5.306-8.503-10.723-16.66-19.077-23.124-25.062l4.473-4.473c5.858-5.858 5.858-15.355 0-21.213-5.857-5.858-15.355-5.857-21.213 0l-32.134 32.133c-5.858 5.857-5.858 15.355 0 21.213 5.856 5.857 15.354 5.859 21.213 0l6.423-6.422c5.787 5.288 13.596 13.175 21.748 23.599-64.793 55.05-214.502 173.943-336.247 269.687 115.397-146.739 264.427-334.103 294.763-364.437zm-77.629 429.501c-27.166 0-49.267-22.101-49.267-49.267s22.101-49.267 49.267-49.267c22.215 0 56.852 9.05 99.975 49.88-33.186 35.714-69.641 48.654-99.975 48.654z"/></svg>