<svg xmlns="http://www.w3.org/2000/svg" xmlns:xlink="http://www.w3.org/1999/xlink" width="800" zoomAndPan="magnify" viewBox="0 0 600 599.999999" height="800" preserveAspectRatio="xMidYMid meet" version="1.0"><defs><clipPath id="b1d6c9279b"><path d="M 300 0 C 134.316406 0 0 134.316406 0 300 C 0 465.683594 134.316406 600 300 600 C 465.683594 600 600 465.683594 600 300 C 600 134.316406 465.683594 0 300 0 Z M 300 0 " clip-rule="nonzero"/></clipPath></defs><g clip-path="url(#b1d6c9279b)"><rect x="-60" width="720" fill="#ffffff" y="-60" height="719.999999" fill-opacity="1"/></g><path fill="#ffffff" d="M 514.800781 367.445312 L 314.0625 251.121094 L 314.0625 242.464844 C 314.0625 232.59375 319.695312 223.414062 328.761719 218.503906 C 349.191406 207.449219 361.335938 186.148438 360.453125 162.921875 C 359.261719 131.523438 333.734375 105.992188 302.34375 104.800781 C 285.734375 104.164062 270.003906 110.160156 258.050781 121.667969 C 246.089844 133.179688 239.503906 148.664062 239.503906 165.265625 C 239.503906 173.03125 245.796875 179.328125 253.566406 179.328125 C 261.332031 179.328125 267.628906 173.03125 267.628906 165.265625 C 267.628906 156.378906 271.152344 148.09375 277.554688 141.929688 C 283.949219 135.773438 292.363281 132.558594 301.277344 132.90625 C 318.0625 133.542969 331.710938 147.195312 332.347656 163.988281 C 332.820312 176.433594 326.316406 187.847656 315.375 193.773438 C 297.21875 203.601562 285.9375 222.257812 285.9375 242.464844 L 285.9375 251.121094 L 85.199219 367.445312 C 69.65625 376.453125 60 393.214844 60 411.179688 C 60 439.050781 82.671875 461.726562 110.535156 461.726562 L 489.464844 461.726562 C 517.328125 461.726562 540 439.050781 540 411.179688 C 540 393.210938 530.34375 376.453125 514.800781 367.445312 Z M 489.464844 433.601562 L 110.535156 433.601562 C 98.179688 433.601562 88.125 423.542969 88.125 411.179688 C 88.125 403.210938 92.40625 395.777344 99.304688 391.78125 L 300 275.476562 L 500.695312 391.78125 C 507.589844 395.777344 511.875 403.210938 511.875 411.179688 C 511.875 423.542969 501.820312 433.601562 489.464844 433.601562 Z M 489.464844 433.601562 " fill-opacity="1" fill-rule="nonzero"/><path fill="#ffffff" d="M 138.792969 130.996094 C 144.546875 130.996094 148.386719 134.835938 148.386719 140.589844 L 148.386719 198.152344 L 205.949219 198.152344 C 211.703125 198.152344 215.542969 201.992188 215.542969 207.746094 C 215.542969 213.503906 211.703125 217.339844 205.949219 217.339844 L 148.386719 217.339844 L 148.386719 274.902344 C 148.386719 280.660156 144.546875 284.496094 138.792969 284.496094 C 133.035156 284.496094 129.199219 280.660156 129.199219 274.902344 L 129.199219 217.339844 L 71.636719 217.339844 C 65.878906 217.339844 62.042969 213.503906 62.042969 207.746094 C 62.042969 201.992188 65.878906 198.152344 71.636719 198.152344 L 129.199219 198.152344 L 129.199219 140.589844 C 129.199219 134.835938 133.035156 130.996094 138.792969 130.996094 Z M 138.792969 130.996094 " fill-opacity="1" fill-rule="nonzero"/><path fill="#287e60" d="M 138.742188 127.695312 C 144.742188 127.695312 148.742188 131.695312 148.742188 137.695312 L 148.742188 197.695312 L 208.742188 197.695312 C 214.742188 197.695312 218.742188 201.695312 218.742188 207.695312 C 218.742188 213.695312 214.742188 217.695312 208.742188 217.695312 L 148.742188 217.695312 L 148.742188 277.695312 C 148.742188 283.695312 144.742188 287.695312 138.742188 287.695312 C 132.742188 287.695312 128.742188 283.695312 128.742188 277.695312 L 128.742188 217.695312 L 68.742188 217.695312 C 62.742188 217.695312 58.742188 213.695312 58.742188 207.695312 C 58.742188 201.695312 62.742188 197.695312 68.742188 197.695312 L 128.742188 197.695312 L 128.742188 137.695312 C 128.742188 131.695312 132.742188 127.695312 138.742188 127.695312 Z M 138.742188 127.695312 " fill-opacity="1" fill-rule="nonzero"/><path fill="#287e60" d="M 514.800781 367.445312 L 314.0625 251.121094 L 314.0625 242.464844 C 314.0625 232.59375 319.695312 223.414062 328.761719 218.503906 C 349.191406 207.449219 361.335938 186.148438 360.453125 162.921875 C 359.261719 131.523438 333.734375 105.992188 302.34375 104.800781 C 285.734375 104.164062 270.003906 110.160156 258.050781 121.667969 C 246.089844 133.179688 239.503906 148.664062 239.503906 165.265625 C 239.503906 173.03125 245.796875 179.328125 253.566406 179.328125 C 261.332031 179.328125 267.628906 173.03125 267.628906 165.265625 C 267.628906 156.378906 271.152344 148.09375 277.554688 141.929688 C 283.949219 135.773438 292.363281 132.558594 301.277344 132.90625 C 318.0625 133.542969 331.710938 147.195312 332.347656 163.988281 C 332.820312 176.433594 326.316406 187.847656 315.375 193.773438 C 297.21875 203.601562 285.9375 222.257812 285.9375 242.464844 L 285.9375 251.121094 L 85.199219 367.445312 C 69.65625 376.453125 60 393.214844 60 411.179688 C 60 439.050781 82.671875 461.726562 110.535156 461.726562 L 489.464844 461.726562 C 517.328125 461.726562 540 439.050781 540 411.179688 C 540 393.210938 530.34375 376.453125 514.800781 367.445312 Z M 489.464844 433.601562 L 110.535156 433.601562 C 98.179688 433.601562 88.125 423.542969 88.125 411.179688 C 88.125 403.210938 92.40625 395.777344 99.304688 391.78125 L 300 275.476562 L 500.695312 391.78125 C 507.589844 395.777344 511.875 403.210938 511.875 411.179688 C 511.875 423.542969 501.820312 433.601562 489.464844 433.601562 Z M 489.464844 433.601562 " fill-opacity="1" fill-rule="nonzero"/></svg>