<svg xmlns="http://www.w3.org/2000/svg" xmlns:xlink="http://www.w3.org/1999/xlink" width="800" zoomAndPan="magnify" viewBox="0 0 600 599.999999" height="800" preserveAspectRatio="xMidYMid meet" version="1.0"><defs><clipPath id="9f7b27a2f8"><path d="M 300 0 C 134.316406 0 0 134.316406 0 300 C 0 465.683594 134.316406 600 300 600 C 465.683594 600 600 465.683594 600 300 C 600 134.316406 465.683594 0 300 0 Z M 300 0 " clip-rule="nonzero"/></clipPath><clipPath id="4ac10410bc"><path d="M 167.527344 150.894531 L 540.277344 150.894531 L 540.277344 523.644531 L 167.527344 523.644531 Z M 167.527344 150.894531 " clip-rule="nonzero"/></clipPath><clipPath id="1c06745a2f"><path d="M 167.527344 150.894531 L 540.277344 150.894531 L 540.277344 376 L 167.527344 376 Z M 167.527344 150.894531 " clip-rule="nonzero"/></clipPath></defs><g clip-path="url(#9f7b27a2f8)"><rect x="-60" width="720" fill="#287e60" y="-60" height="719.999999" fill-opacity="1"/></g><path fill="#ffffff" d="M 138.792969 130.996094 C 144.546875 130.996094 148.386719 134.835938 148.386719 140.589844 L 148.386719 198.152344 L 205.949219 198.152344 C 211.703125 198.152344 215.542969 201.992188 215.542969 207.746094 C 215.542969 213.503906 211.703125 217.339844 205.949219 217.339844 L 148.386719 217.339844 L 148.386719 274.902344 C 148.386719 280.660156 144.546875 284.496094 138.792969 284.496094 C 133.035156 284.496094 129.199219 280.660156 129.199219 274.902344 L 129.199219 217.339844 L 71.636719 217.339844 C 65.878906 217.339844 62.042969 213.503906 62.042969 207.746094 C 62.042969 201.992188 65.878906 198.152344 71.636719 198.152344 L 129.199219 198.152344 L 129.199219 140.589844 C 129.199219 134.835938 133.035156 130.996094 138.792969 130.996094 Z M 138.792969 130.996094 " fill-opacity="1" fill-rule="nonzero"/><g clip-path="url(#4ac10410bc)"><path stroke-linecap="butt" transform="matrix(15.531249, 0, 0, 15.531249, 167.526644, 150.89553)" fill="none" stroke-linejoin="miter" d="M 2.000045 13.999937 C 2.000045 10.22881 2.000045 8.343246 3.171575 7.171465 C 4.343104 5.999936 6.228667 5.999936 10.000046 5.999936 L 14.000046 5.999936 C 17.771173 5.999936 19.656988 5.999936 20.828518 7.171465 C 22.000047 8.343246 22.000047 10.22881 22.000047 13.999937 C 22.000047 17.771315 22.000047 19.656879 20.828518 20.828408 C 19.656988 21.999938 17.771173 21.999938 14.000046 21.999938 L 10.000046 21.999938 C 6.228667 21.999938 4.343104 21.999938 3.171575 20.828408 C 2.000045 19.656879 2.000045 17.771315 2.000045 13.999937 Z M 2.000045 13.999937 " stroke="#ffffff" stroke-width="1.5" stroke-opacity="1" stroke-miterlimit="4"/></g><g clip-path="url(#1c06745a2f)"><path stroke-linecap="butt" transform="matrix(15.531249, 0, 0, 15.531249, 167.526644, 150.89553)" fill="none" stroke-linejoin="miter" d="M 16.000046 5.999936 C 16.000046 4.114373 16.000046 3.171465 15.414282 2.5857 C 14.828517 1.999936 13.88561 1.999936 12.000046 1.999936 C 10.114483 1.999936 9.171575 1.999936 8.58581 2.5857 C 8.000046 3.171465 8.000046 4.114373 8.000046 5.999936 " stroke="#ffffff" stroke-width="1.5" stroke-opacity="1" stroke-miterlimit="4"/></g><path stroke-linecap="butt" transform="matrix(15.531249, 0, 0, 15.531249, 167.526644, 150.89553)" fill="none" stroke-linejoin="round" d="M 10.000046 14.999937 L 6.000046 14.999937 C 5.528718 14.999937 5.292802 14.999937 5.146424 15.146315 C 5.000046 15.292945 5.000046 15.528609 5.000046 15.999937 L 5.000046 16.999937 C 5.000046 17.471517 5.000046 17.707181 5.146424 17.853559 C 5.292802 17.999937 5.528718 17.999937 6.000046 17.999937 L 10.000046 17.999937 C 10.471374 17.999937 10.707038 17.999937 10.853668 17.853559 C 11.000046 17.707181 11.000046 17.471517 11.000046 16.999937 L 11.000046 15.999937 C 11.000046 15.528609 11.000046 15.292945 10.853668 15.146315 C 10.707038 14.999937 10.471374 14.999937 10.000046 14.999937 Z M 10.000046 14.999937 " stroke="#ffffff" stroke-width="1.5" stroke-opacity="1" stroke-miterlimit="4"/><path stroke-linecap="round" transform="matrix(15.531249, 0, 0, 15.531249, 167.526644, 150.89553)" fill="none" stroke-linejoin="miter" d="M 6.000046 6.499936 L 6.000046 14.999937 M 6.000046 21.499937 L 6.000046 18.499937 " stroke="#ffffff" stroke-width="1.5" stroke-opacity="1" stroke-miterlimit="4"/><path stroke-linecap="round" transform="matrix(15.531249, 0, 0, 15.531249, 167.526644, 150.89553)" fill="none" stroke-linejoin="miter" d="M 18.000047 6.499936 L 18.000047 21.499937 " stroke="#ffffff" stroke-width="1.5" stroke-opacity="1" stroke-miterlimit="4"/></svg>