<svg id="washing" enable-background="new 0 0 512 512" height="512" viewBox="0 0 512 512" width="512" xmlns="http://www.w3.org/2000/svg"><path d="m436 454.5h-360c-2.761 0-5-2.238-5-5s2.239-5 5-5h360c2.762 0 5 2.238 5 5s-2.238 5-5 5zm0-27h-360c-2.761 0-5-2.238-5-5v-360c0-2.761 2.239-5 5-5h360c2.762 0 5 2.239 5 5v360c0 2.762-2.238 5-5 5zm-119.957-10h114.957v-114.957c-18.508 53.793-61.164 96.449-114.957 114.957zm-235.043-175c0 96.495 78.505 175 175 175s175-78.505 175-175-78.505-175-175-175-175 78.505-175 175zm0 175h114.957c-53.793-18.508-96.449-61.164-114.957-114.957zm235.043-350c53.793 18.507 96.449 61.164 114.957 114.957v-114.957zm-235.043 0v114.957c18.508-53.793 61.164-96.45 114.957-114.957z" fill="rgb(0,0,0)"/></svg>