<svg fill="#287e60" height="512" viewBox="0 0 32 32" width="512" xmlns="http://www.w3.org/2000/svg"><g id="Layer_2"><path d="m23.75 31h-15.5c-3.998 0-7.25-3.252-7.25-7.25v-15.5c0-3.998 3.252-7.25 7.25-7.25h15.5c3.998 0 7.25 3.252 7.25 7.25v15.5c0 3.998-3.252 7.25-7.25 7.25zm-15.5-28c-2.895 0-5.25 2.355-5.25 5.25v15.5c0 2.895 2.355 5.25 5.25 5.25h15.5c2.895 0 5.25-2.355 5.25-5.25v-15.5c0-2.895-2.355-5.25-5.25-5.25z"/><path d="m16 24.583c-.552 0-1-.448-1-1v-15.166c0-.552.448-1 1-1s1 .448 1 1v15.167c0 .552-.448.999-1 .999z"/><path d="m23.583 17h-15.166c-.552 0-1-.448-1-1s.448-1 1-1h15.167c.552 0 1 .448 1 1s-.448 1-1.001 1z"/></g></svg>