<?xml version="1.0" encoding="UTF-8"?>
<svg fill="#FFFFFF" xmlns="http://www.w3.org/2000/svg" id="Line_Expand" data-name="Line Expand" viewBox="0 0 64 64" width="512" height="512"><path d="M59,36.75A4.756,4.756,0,0,0,63.75,32V21A4.756,4.756,0,0,0,59,16.25H56.75V14A6.758,6.758,0,0,0,50,7.25h-.25V2a1.75,1.75,0,0,0-3.5,0V7.25H10.75V2a1.75,1.75,0,0,0-3.5,0V7.25H7A6.758,6.758,0,0,0,.25,14V29A4.756,4.756,0,0,0,5,33.75H7.25V44a1.75,1.75,0,0,0,3.5,0V41.75H12a1.75,1.75,0,0,0,0-3.5H10.75v-4.5H13A4.756,4.756,0,0,0,17.75,29V24.75H33A8.259,8.259,0,0,1,41.25,33,10.261,10.261,0,0,1,31,43.25H30a8.765,8.765,0,0,0-8.574,7H6A5.756,5.756,0,0,0,.25,56v6A1.749,1.749,0,0,0,2,63.75H62A1.749,1.749,0,0,0,63.75,62V56A5.756,5.756,0,0,0,58,50.25H56.75V36.75Zm-2.25-17H59A1.252,1.252,0,0,1,60.25,21V32A1.252,1.252,0,0,1,59,33.25H56.75Zm-39-9h21.5v3.5H17.75ZM30,46.75h1A13.765,13.765,0,0,0,44.75,33,11.763,11.763,0,0,0,33,21.25H16A1.749,1.749,0,0,0,14.25,23v6A1.252,1.252,0,0,1,13,30.25H5A1.252,1.252,0,0,1,3.75,29V14A3.254,3.254,0,0,1,7,10.75h7.25V16A1.749,1.749,0,0,0,16,17.75H41A1.749,1.749,0,0,0,42.75,16V10.75H50A3.254,3.254,0,0,1,53.25,14V50.25H25.073A5.241,5.241,0,0,1,30,46.75Zm28,7A2.253,2.253,0,0,1,60.25,56v4.25H3.75V56A2.253,2.253,0,0,1,6,53.75Z"/><path d="M48,21.25H45a1.75,1.75,0,0,0,0,3.5h3a1.75,1.75,0,0,0,0-3.5Z"/></svg>
