<?xml version="1.0" encoding="iso-8859-1"?>
<!-- Generator: Adobe Illustrator 19.0.0, SVG Export Plug-In . SVG Version: 6.00 Build 0)  -->
<svg version="1.1" id="Layer_1" xmlns="http://www.w3.org/2000/svg" xmlns:xlink="http://www.w3.org/1999/xlink" x="0px" y="0px"
	 viewBox="0 0 512 512" style="enable-background:new 0 0 512 512;" xml:space="preserve">
<g>
	<g>
		<path style="fill:#287e60;" d="M446.497,326.704c-12.075-6.967-24.802-10.958-36.302-11.238c-9.527-0.315-17.219,1.998-22.769,6.478l-53.275-30.793
			l62.05-27.344c3.092-1.363,5.108-4.425,5.108-7.808c0-3.383-1.994-6.446-5.085-7.808l-62.015-27.344l53.408-30.833
			c5.31,4.237,12.646,6.535,21.521,6.535c0.425,0,0.867-0.004,1.302-0.017c11.498-0.279,23.981-4.271,36.056-11.237
			c27.383-15.813,41.15-40.442,30.483-57.296c0,0,0,0,0-0.004c-8.533-16.842-37.242-17.633-64.617-1.825
			c-12.075,6.975-21.777,16.217-27.76,26.033c-4.935,8.082-6.758,16.008-5.688,23.055l-53.302,30.808l7.362-67.389
			c0.367-3.358-1.275-6.621-4.2-8.313c-2.933-1.683-6.081-1.492-8.806,0.504l-54.19,40.041V109.32
			c14.933-5.848,25.104-27.055,25.104-53.853C290.885,23.846,275.964,0,256.505,0c-19.458,0-33.762,23.846-33.762,55.467
			c0,26.798,8.904,48.005,25.971,53.853v61.592l-55.187-40.041c-2.725-1.996-6.629-2.187-9.554-0.504
			c-2.925,1.692-4.708,4.954-4.342,8.313l7.271,67.389l-53.371-30.796c2.463-15.966-10.65-35.7-33.858-49.101
			c-12.075-6.967-25.058-10.958-36.556-11.238c-13.458-0.387-23.504,4.321-28.554,13.063c-5.05,8.754-4.01,19.858,2.956,31.267
			c5.983,9.817,15.931,19.058,28.006,26.034c13.142,7.587,26.425,11.35,37.767,11.35c8.671,0,16.156-2.248,21.617-6.624
			l53.394,30.826l-62.019,27.344c-3.092,1.363-5.092,4.425-5.092,7.808c0,3.383,2,6.446,5.092,7.808l62.019,27.344l-53.394,30.826
			c-12.604-10.098-36.188-8.664-59.383,4.726c-12.075,6.975-22.025,16.217-28.008,26.033c-6.967,11.408-8.008,22.513-2.958,31.262
			c4.883,8.463,14.533,13.084,27.25,13.084c0.425,0,0.867-0.004,1.3-0.017c11.5-0.279,24.475-4.271,36.55-11.237
			c23.206-13.401,36.306-33.135,33.842-49.101l53.34-30.795l-7.331,67.388c-0.367,3.358,1.292,6.621,4.217,8.313
			c2.925,1.683,7.077,1.492,9.802-0.504l55.187-40.041v61.592c-17.067,5.848-26.096,27.055-26.096,53.853
			c0,31.621,14.429,55.467,33.887,55.467c19.458,0,34.504-23.846,34.504-55.467c0-26.798-10.296-48.005-25.229-53.853v-61.592
			l54.196,40.041c1.492,1.092,3.021,1.646,4.796,1.646c1.467,0,2.817-0.379,4.142-1.141c2.925-1.692,4.521-4.954,4.154-8.313
			l-7.363-67.388l53.348,30.807c-1.071,7.049,0.869,14.974,5.804,23.055c5.981,9.817,15.929,19.058,28.004,26.034
			c13.142,7.587,25.931,11.35,37.271,11.35c12.284,0,22.581-4.417,26.848-13.175c0-0.004,0-0.004,0-0.004
			C487.647,367.146,473.88,342.517,446.497,326.704z M399.416,161.096c4.458-7.317,12.475-14.654,21.975-20.142
			c11.067-6.392,21.458-8.917,29.183-8.917c6.433,0,11.025,1.754,12.608,4.496c3.475,6.025-4.425,22.258-24.725,33.979
			c-9.5,5.487-19.867,8.754-28.433,8.958c-6.55,0.146-11.617-1.537-13.35-4.542C394.932,171.929,395.966,166.754,399.416,161.096z
			 M115.859,174.906c-0.004,0.009-0.012,0.017-0.019,0.027c-0.006,0.009-0.006,0.018-0.012,0.026
			c-3.523,6.009-21.51,7.256-41.771-4.447c-9.5-5.488-17.517-12.825-21.975-20.142c-3.45-5.659-4.483-10.833-2.742-13.838
			c1.658-2.875,6.292-4.55,12.492-4.55c0.283,0,0.575,0.004,0.858,0.013c8.567,0.204,18.933,3.471,28.433,8.958
			C111.397,152.659,119.299,168.862,115.859,174.906z M91.124,371.046c-9.5,5.487-19.867,8.754-28.433,8.958
			c-6.458,0.117-11.617-1.537-13.35-4.542c-1.742-3-0.708-8.175,2.742-13.833c4.458-7.317,12.475-14.654,21.975-20.142
			c11.067-6.392,21.458-8.917,29.183-8.917c6.41,0,10.988,1.743,12.588,4.468c0.004,0.009,0.006,0.019,0.012,0.028
			c0.006,0.012,0.015,0.021,0.023,0.032C119.295,343.148,111.391,359.344,91.124,371.046z M314.443,156.075l-6.342,60.568
			l-42.321,24.576v-49.154L314.443,156.075z M248.714,192.065v49.154l-42.817-24.576l-6.838-60.568L248.714,192.065z M140.874,256
			l55.744-24.577L239.187,256l-42.569,24.577L140.874,256z M199.059,355.925l6.838-60.568l42.817-24.576v49.154L199.059,355.925z
			 M273.324,456.533c0,23.442-10.108,38.4-17.067,38.4c-6.958,0-17.067-14.958-17.067-38.4c0-23.442,10.108-38.4,17.067-38.4
			C263.216,418.133,273.324,433.092,273.324,456.533z M256.257,93.867c-6.958,0-17.067-14.958-17.067-38.4
			c0-23.442,10.108-38.4,17.067-38.4c6.959,0,17.067,14.958,17.067,38.4C273.324,78.908,263.216,93.867,256.257,93.867z
			 M265.78,319.936v-49.154l42.321,24.576l6.342,60.568L265.78,319.936z M315.897,280.577L273.326,256l42.571-24.577L371.641,256
			L315.897,280.577z M463.182,375.467c-3.483,6.034-21.492,7.3-41.792-4.421c-9.5-5.488-17.517-12.825-21.975-20.142
			c-3.45-5.658-4.483-10.833-2.742-13.838c1.658-2.875,6.292-4.55,12.492-4.55c0.283,0,0.575,0.004,0.858,0.013
			c8.567,0.204,18.933,3.471,28.433,8.958C458.757,353.209,466.657,369.442,463.182,375.467z"/>
	</g>
</g>
<g>
</g>
<g>
</g>
<g>
</g>
<g>
</g>
<g>
</g>
<g>
</g>
<g>
</g>
<g>
</g>
<g>
</g>
<g>
</g>
<g>
</g>
<g>
</g>
<g>
</g>
<g>
</g>
<g>
</g>
</svg>
