<svg xmlns="http://www.w3.org/2000/svg" width="112.5" viewBox="0 0 112.5 112.5" height="112.5" version="1.0"><defs><clipPath id="a"><path d="M 20 19 L 92 19 L 92 91 L 20 91 Z M 20 19"/></clipPath><clipPath id="b"><path d="M -23.296875 56.25 L 56.253906 -23.300781 L 96.027344 16.472656 L 16.476562 96.023438 Z M -23.296875 56.25"/></clipPath><clipPath id="c"><path d="M -23.296875 56.25 L 56.253906 -23.300781 L 135.800781 56.25 L 56.253906 135.796875 Z M -23.296875 56.25"/></clipPath><clipPath id="d"><path d="M -23.296875 56.25 L 56.253906 -23.300781 L 135.800781 56.25 L 56.253906 135.796875 Z M -23.296875 56.25"/></clipPath><clipPath id="e"><path d="M 15 83 L 29 83 L 29 96 L 15 96 Z M 15 83"/></clipPath><clipPath id="f"><path d="M -23.296875 56.25 L 56.253906 -23.300781 L 96.027344 16.472656 L 16.476562 96.023438 Z M -23.296875 56.25"/></clipPath><clipPath id="g"><path d="M -23.296875 56.25 L 56.253906 -23.300781 L 135.800781 56.25 L 56.253906 135.796875 Z M -23.296875 56.25"/></clipPath><clipPath id="h"><path d="M -23.296875 56.25 L 56.253906 -23.300781 L 135.800781 56.25 L 56.253906 135.796875 Z M -23.296875 56.25"/></clipPath><clipPath id="i"><path d="M 83 16 L 97 16 L 97 29 L 83 29 Z M 83 16"/></clipPath><clipPath id="j"><path d="M -23.296875 56.25 L 56.253906 -23.300781 L 96.027344 16.472656 L 16.476562 96.023438 Z M -23.296875 56.25"/></clipPath><clipPath id="k"><path d="M -23.296875 56.25 L 56.253906 -23.300781 L 135.800781 56.25 L 56.253906 135.796875 Z M -23.296875 56.25"/></clipPath><clipPath id="l"><path d="M -23.296875 56.25 L 56.253906 -23.300781 L 135.800781 56.25 L 56.253906 135.796875 Z M -23.296875 56.25"/></clipPath><clipPath id="m"><path d="M 31 92 L 42 92 L 42 97 L 31 97 Z M 31 92"/></clipPath><clipPath id="n"><path d="M -23.296875 56.25 L 56.253906 -23.300781 L 96.027344 16.472656 L 16.476562 96.023438 Z M -23.296875 56.25"/></clipPath><clipPath id="o"><path d="M -23.296875 56.25 L 56.253906 -23.300781 L 135.800781 56.25 L 56.253906 135.796875 Z M -23.296875 56.25"/></clipPath><clipPath id="p"><path d="M -23.296875 56.25 L 56.253906 -23.300781 L 135.800781 56.25 L 56.253906 135.796875 Z M -23.296875 56.25"/></clipPath><clipPath id="q"><path d="M 70 5 L 81 5 L 81 21 L 70 21 Z M 70 5"/></clipPath><clipPath id="r"><path d="M -23.296875 56.25 L 56.253906 -23.300781 L 96.027344 16.472656 L 16.476562 96.023438 Z M -23.296875 56.25"/></clipPath><clipPath id="s"><path d="M -23.296875 56.25 L 56.253906 -23.300781 L 135.800781 56.25 L 56.253906 135.796875 Z M -23.296875 56.25"/></clipPath><clipPath id="t"><path d="M -23.296875 56.25 L 56.253906 -23.300781 L 135.800781 56.25 L 56.253906 135.796875 Z M -23.296875 56.25"/></clipPath><clipPath id="u"><path d="M 48 96 L 57 96 L 57 97 L 48 97 Z M 48 96"/></clipPath><clipPath id="v"><path d="M -23.296875 56.25 L 56.253906 -23.300781 L 96.027344 16.472656 L 16.476562 96.023438 Z M -23.296875 56.25"/></clipPath><clipPath id="w"><path d="M -23.296875 56.25 L 56.253906 -23.300781 L 135.800781 56.25 L 56.253906 135.796875 Z M -23.296875 56.25"/></clipPath><clipPath id="x"><path d="M -23.296875 56.25 L 56.253906 -23.300781 L 135.800781 56.25 L 56.253906 135.796875 Z M -23.296875 56.25"/></clipPath><clipPath id="y"><path d="M 56 0 L 65 0 L 65 16 L 56 16 Z M 56 0"/></clipPath><clipPath id="z"><path d="M -23.296875 56.25 L 56.253906 -23.300781 L 96.027344 16.472656 L 16.476562 96.023438 Z M -23.296875 56.25"/></clipPath><clipPath id="A"><path d="M -23.296875 56.25 L 56.253906 -23.300781 L 135.800781 56.25 L 56.253906 135.796875 Z M -23.296875 56.25"/></clipPath><clipPath id="B"><path d="M -23.296875 56.25 L 56.253906 -23.300781 L 135.800781 56.25 L 56.253906 135.796875 Z M -23.296875 56.25"/></clipPath><clipPath id="C"><path d="M 63 95 L 72 95 L 72 97 L 63 97 Z M 63 95"/></clipPath><clipPath id="D"><path d="M -23.296875 56.25 L 56.253906 -23.300781 L 96.027344 16.472656 L 16.476562 96.023438 Z M -23.296875 56.25"/></clipPath><clipPath id="E"><path d="M -23.296875 56.25 L 56.253906 -23.300781 L 135.800781 56.25 L 56.253906 135.796875 Z M -23.296875 56.25"/></clipPath><clipPath id="F"><path d="M -23.296875 56.25 L 56.253906 -23.300781 L 135.800781 56.25 L 56.253906 135.796875 Z M -23.296875 56.25"/></clipPath><clipPath id="G"><path d="M 41 1 L 49 1 L 49 18 L 41 18 Z M 41 1"/></clipPath><clipPath id="H"><path d="M -23.296875 56.25 L 56.253906 -23.300781 L 96.027344 16.472656 L 16.476562 96.023438 Z M -23.296875 56.25"/></clipPath><clipPath id="I"><path d="M -23.296875 56.25 L 56.253906 -23.300781 L 135.800781 56.25 L 56.253906 135.796875 Z M -23.296875 56.25"/></clipPath><clipPath id="J"><path d="M -23.296875 56.25 L 56.253906 -23.300781 L 135.800781 56.25 L 56.253906 135.796875 Z M -23.296875 56.25"/></clipPath><clipPath id="K"><path d="M 77 88 L 89 88 L 89 97 L 77 97 Z M 77 88"/></clipPath><clipPath id="L"><path d="M -23.296875 56.25 L 56.253906 -23.300781 L 96.027344 16.472656 L 16.476562 96.023438 Z M -23.296875 56.25"/></clipPath><clipPath id="M"><path d="M -23.296875 56.25 L 56.253906 -23.300781 L 135.800781 56.25 L 56.253906 135.796875 Z M -23.296875 56.25"/></clipPath><clipPath id="N"><path d="M -23.296875 56.25 L 56.253906 -23.300781 L 135.800781 56.25 L 56.253906 135.796875 Z M -23.296875 56.25"/></clipPath><clipPath id="O"><path d="M 24 9 L 35 9 L 35 24 L 24 24 Z M 24 9"/></clipPath><clipPath id="P"><path d="M -23.296875 56.25 L 56.253906 -23.300781 L 96.027344 16.472656 L 16.476562 96.023438 Z M -23.296875 56.25"/></clipPath><clipPath id="Q"><path d="M -23.296875 56.25 L 56.253906 -23.300781 L 135.800781 56.25 L 56.253906 135.796875 Z M -23.296875 56.25"/></clipPath><clipPath id="R"><path d="M -23.296875 56.25 L 56.253906 -23.300781 L 135.800781 56.25 L 56.253906 135.796875 Z M -23.296875 56.25"/></clipPath><clipPath id="S"><path d="M 88 77 L 97 77 L 97 90 L 88 90 Z M 88 77"/></clipPath><clipPath id="T"><path d="M -23.296875 56.25 L 56.253906 -23.300781 L 96.027344 16.472656 L 16.476562 96.023438 Z M -23.296875 56.25"/></clipPath><clipPath id="U"><path d="M -23.296875 56.25 L 56.253906 -23.300781 L 135.800781 56.25 L 56.253906 135.796875 Z M -23.296875 56.25"/></clipPath><clipPath id="V"><path d="M -23.296875 56.25 L 56.253906 -23.300781 L 135.800781 56.25 L 56.253906 135.796875 Z M -23.296875 56.25"/></clipPath><clipPath id="W"><path d="M 10 23 L 24 23 L 24 35 L 10 35 Z M 10 23"/></clipPath><clipPath id="X"><path d="M -23.296875 56.25 L 56.253906 -23.300781 L 96.027344 16.472656 L 16.476562 96.023438 Z M -23.296875 56.25"/></clipPath><clipPath id="Y"><path d="M -23.296875 56.25 L 56.253906 -23.300781 L 135.800781 56.25 L 56.253906 135.796875 Z M -23.296875 56.25"/></clipPath><clipPath id="Z"><path d="M -23.296875 56.25 L 56.253906 -23.300781 L 135.800781 56.25 L 56.253906 135.796875 Z M -23.296875 56.25"/></clipPath><clipPath id="aa"><path d="M 95 63 L 97 63 L 97 73 L 95 73 Z M 95 63"/></clipPath><clipPath id="ab"><path d="M -23.296875 56.25 L 56.253906 -23.300781 L 96.027344 16.472656 L 16.476562 96.023438 Z M -23.296875 56.25"/></clipPath><clipPath id="ac"><path d="M -23.296875 56.25 L 56.253906 -23.300781 L 135.800781 56.25 L 56.253906 135.796875 Z M -23.296875 56.25"/></clipPath><clipPath id="ad"><path d="M -23.296875 56.25 L 56.253906 -23.300781 L 135.800781 56.25 L 56.253906 135.796875 Z M -23.296875 56.25"/></clipPath><clipPath id="ae"><path d="M 2 40 L 18 40 L 18 49 L 2 49 Z M 2 40"/></clipPath><clipPath id="af"><path d="M -23.296875 56.25 L 56.253906 -23.300781 L 96.027344 16.472656 L 16.476562 96.023438 Z M -23.296875 56.25"/></clipPath><clipPath id="ag"><path d="M -23.296875 56.25 L 56.253906 -23.300781 L 135.800781 56.25 L 56.253906 135.796875 Z M -23.296875 56.25"/></clipPath><clipPath id="ah"><path d="M -23.296875 56.25 L 56.253906 -23.300781 L 135.800781 56.25 L 56.253906 135.796875 Z M -23.296875 56.25"/></clipPath><clipPath id="ai"><path d="M 96 48 L 97 48 L 97 57 L 96 57 Z M 96 48"/></clipPath><clipPath id="aj"><path d="M -23.296875 56.25 L 56.253906 -23.300781 L 96.027344 16.472656 L 16.476562 96.023438 Z M -23.296875 56.25"/></clipPath><clipPath id="ak"><path d="M -23.296875 56.25 L 56.253906 -23.300781 L 135.800781 56.25 L 56.253906 135.796875 Z M -23.296875 56.25"/></clipPath><clipPath id="al"><path d="M -23.296875 56.25 L 56.253906 -23.300781 L 135.800781 56.25 L 56.253906 135.796875 Z M -23.296875 56.25"/></clipPath><clipPath id="am"><path d="M 0 56 L 16 56 L 16 64 L 0 64 Z M 0 56"/></clipPath><clipPath id="an"><path d="M -23.296875 56.25 L 56.253906 -23.300781 L 96.027344 16.472656 L 16.476562 96.023438 Z M -23.296875 56.25"/></clipPath><clipPath id="ao"><path d="M -23.296875 56.25 L 56.253906 -23.300781 L 135.800781 56.25 L 56.253906 135.796875 Z M -23.296875 56.25"/></clipPath><clipPath id="ap"><path d="M -23.296875 56.25 L 56.253906 -23.300781 L 135.800781 56.25 L 56.253906 135.796875 Z M -23.296875 56.25"/></clipPath><clipPath id="aq"><path d="M 92 32 L 97 32 L 97 42 L 92 42 Z M 92 32"/></clipPath><clipPath id="ar"><path d="M -23.296875 56.25 L 56.253906 -23.300781 L 96.027344 16.472656 L 16.476562 96.023438 Z M -23.296875 56.25"/></clipPath><clipPath id="as"><path d="M -23.296875 56.25 L 56.253906 -23.300781 L 135.800781 56.25 L 56.253906 135.796875 Z M -23.296875 56.25"/></clipPath><clipPath id="at"><path d="M -23.296875 56.25 L 56.253906 -23.300781 L 135.800781 56.25 L 56.253906 135.796875 Z M -23.296875 56.25"/></clipPath><clipPath id="au"><path d="M 4 70 L 21 70 L 21 80 L 4 80 Z M 4 70"/></clipPath><clipPath id="av"><path d="M -23.296875 56.25 L 56.253906 -23.300781 L 96.027344 16.472656 L 16.476562 96.023438 Z M -23.296875 56.25"/></clipPath><clipPath id="aw"><path d="M -23.296875 56.25 L 56.253906 -23.300781 L 135.800781 56.25 L 56.253906 135.796875 Z M -23.296875 56.25"/></clipPath><clipPath id="ax"><path d="M -23.296875 56.25 L 56.253906 -23.300781 L 135.800781 56.25 L 56.253906 135.796875 Z M -23.296875 56.25"/></clipPath><clipPath id="ay"><path d="M 17 17 L 111 17 L 111 111 L 17 111 Z M 17 17"/></clipPath><clipPath id="az"><path d="M 17.597656 97.144531 L 97.148438 17.59375 L 135.863281 56.308594 L 56.3125 135.859375 Z M 17.597656 97.144531"/></clipPath><clipPath id="aA"><path d="M -23.296875 56.25 L 56.253906 -23.300781 L 135.804688 56.25 L 56.253906 135.796875 Z M -23.296875 56.25"/></clipPath><clipPath id="aB"><path d="M -23.296875 56.25 L 56.253906 -23.300781 L 135.804688 56.25 L 56.253906 135.796875 Z M -23.296875 56.25"/></clipPath></defs><g clip-path="url(#a)"><g clip-path="url(#b)"><g clip-path="url(#c)"><g clip-path="url(#d)"><path fill="#000000" d="M 81.308594 29.660156 C 67.453125 15.804688 44.914062 15.808594 31.058594 29.660156 C 17.203125 43.515625 17.203125 66.058594 31.058594 79.914062 C 44.914062 93.769531 67.453125 93.765625 81.308594 79.914062 C 95.160156 66.054688 95.164062 43.515625 81.308594 29.660156 Z M 77.960938 76.5625 C 65.953125 88.570312 46.417969 88.570312 34.410156 76.5625 C 22.402344 64.558594 22.402344 45.015625 34.40625 33.011719 C 46.414062 21.003906 65.953125 21.003906 77.960938 33.011719 C 89.96875 45.019531 89.96875 64.558594 77.960938 76.5625 Z M 77.960938 76.5625"/></g></g></g></g><g clip-path="url(#e)"><g clip-path="url(#f)"><g clip-path="url(#g)"><g clip-path="url(#h)"><path fill="#000000" d="M 27.78125 85.144531 L 27.359375 84.726562 C 25.511719 82.875 22.898438 83.179688 21.523438 85.410156 L 16.589844 93.394531 C 15.214844 95.625 15.976562 96.445312 18.296875 95.226562 L 26.933594 90.695312 C 29.25 89.476562 29.628906 86.992188 27.78125 85.144531 Z M 27.78125 85.144531"/></g></g></g></g><g clip-path="url(#i)"><g clip-path="url(#j)"><g clip-path="url(#k)"><g clip-path="url(#l)"><path fill="#000000" d="M 94.210938 17.273438 L 85.570312 21.808594 C 83.253906 23.023438 82.875 25.507812 84.726562 27.359375 L 85.144531 27.777344 C 86.992188 29.625 89.609375 29.320312 90.980469 27.09375 L 95.917969 19.105469 C 97.292969 16.878906 96.527344 16.054688 94.210938 17.273438 Z M 94.210938 17.273438"/></g></g></g></g><g clip-path="url(#m)"><g clip-path="url(#n)"><g clip-path="url(#o)"><g clip-path="url(#p)"><path fill="#000000" d="M 39.375 93.136719 L 38.839844 92.886719 C 36.472656 91.78125 34.121094 92.964844 33.585938 95.527344 L 31.683594 104.71875 C 31.152344 107.28125 32.152344 107.792969 33.914062 105.855469 L 40.476562 98.640625 C 42.242188 96.707031 41.746094 94.242188 39.375 93.136719 Z M 39.375 93.136719"/></g></g></g></g><g clip-path="url(#q)"><g clip-path="url(#r)"><g clip-path="url(#s)"><g clip-path="url(#t)"><path fill="#000000" d="M 73.128906 19.363281 L 73.664062 19.609375 C 76.035156 20.71875 78.390625 19.539062 78.917969 16.972656 L 80.824219 7.78125 C 81.355469 5.214844 80.355469 4.707031 78.59375 6.644531 L 72.023438 13.855469 C 70.261719 15.789062 70.753906 18.253906 73.128906 19.363281 Z M 73.128906 19.363281"/></g></g></g></g><g clip-path="url(#u)"><g clip-path="url(#v)"><g clip-path="url(#w)"><g clip-path="url(#x)"><path fill="#000000" d="M 52.425781 96.632812 C 49.816406 96.40625 48.011719 98.320312 48.390625 100.910156 L 49.75 110.203125 C 50.125 112.789062 51.238281 112.925781 52.226562 110.503906 L 55.929688 101.476562 C 56.925781 99.058594 55.617188 96.914062 53.007812 96.683594 Z M 52.425781 96.632812"/></g></g></g></g><g clip-path="url(#y)"><g clip-path="url(#z)"><g clip-path="url(#A)"><g clip-path="url(#B)"><path fill="#000000" d="M 60.085938 15.863281 C 62.695312 16.089844 64.5 14.179688 64.117188 11.59375 L 62.761719 2.296875 C 62.382812 -0.289062 61.269531 -0.421875 60.277344 1.996094 L 56.574219 11.019531 C 55.582031 13.4375 56.886719 15.585938 59.492188 15.816406 Z M 60.085938 15.863281"/></g></g></g></g><g clip-path="url(#C)"><g clip-path="url(#D)"><g clip-path="url(#E)"><g clip-path="url(#F)"><path fill="#000000" d="M 67.035156 95.351562 L 66.46875 95.507812 C 63.9375 96.183594 62.898438 98.601562 64.136719 100.90625 L 68.59375 109.175781 C 69.835938 111.480469 70.925781 111.226562 71.03125 108.613281 L 71.425781 98.859375 C 71.53125 96.246094 69.566406 94.679688 67.035156 95.351562 Z M 67.035156 95.351562"/></g></g></g></g><g clip-path="url(#G)"><g clip-path="url(#H)"><g clip-path="url(#I)"><g clip-path="url(#J)"><path fill="#000000" d="M 45.46875 17.144531 L 46.039062 16.992188 C 48.566406 16.316406 49.609375 13.898438 48.367188 11.59375 L 43.917969 3.324219 C 42.675781 1.019531 41.582031 1.277344 41.472656 3.890625 L 41.078125 13.636719 C 40.976562 16.25 42.941406 17.820312 45.46875 17.144531 Z M 45.46875 17.144531"/></g></g></g></g><g clip-path="url(#K)"><g clip-path="url(#L)"><g clip-path="url(#M)"><g clip-path="url(#N)"><path fill="#000000" d="M 79.757812 89.304688 L 79.277344 89.648438 C 77.128906 91.148438 76.976562 93.773438 78.933594 95.515625 L 85.945312 101.761719 C 87.898438 103.5 88.839844 102.890625 88.042969 100.398438 L 85.078125 91.101562 C 84.289062 88.609375 81.902344 87.804688 79.757812 89.304688 Z M 79.757812 89.304688"/></g></g></g></g><g clip-path="url(#O)"><g clip-path="url(#P)"><g clip-path="url(#Q)"><g clip-path="url(#R)"><path fill="#000000" d="M 32.742188 23.191406 L 33.226562 22.847656 C 35.375 21.347656 35.527344 18.71875 33.574219 16.976562 L 26.558594 10.734375 C 24.605469 8.992188 23.664062 9.601562 24.460938 12.097656 L 27.421875 21.390625 C 28.214844 23.886719 30.597656 24.691406 32.742188 23.191406 Z M 32.742188 23.191406"/></g></g></g></g><g clip-path="url(#S)"><g clip-path="url(#T)"><g clip-path="url(#U)"><g clip-path="url(#V)"><path fill="#000000" d="M 89.648438 79.277344 L 89.308594 79.761719 C 87.808594 81.90625 88.566406 84.429688 90.996094 85.394531 L 99.722656 88.863281 C 102.15625 89.832031 102.828125 88.9375 101.230469 86.863281 L 95.257812 79.144531 C 93.660156 77.070312 91.148438 77.132812 89.648438 79.277344 Z M 89.648438 79.277344"/></g></g></g></g><g clip-path="url(#W)"><g clip-path="url(#X)"><g clip-path="url(#Y)"><g clip-path="url(#Z)"><path fill="#000000" d="M 22.851562 33.222656 L 23.191406 32.738281 C 24.691406 30.589844 23.9375 28.070312 21.507812 27.101562 L 12.78125 23.636719 C 10.351562 22.667969 9.671875 23.5625 11.273438 25.632812 L 17.242188 33.355469 C 18.839844 35.425781 21.351562 35.367188 22.851562 33.222656 Z M 22.851562 33.222656"/></g></g></g></g><g clip-path="url(#aa)"><g clip-path="url(#ab)"><g clip-path="url(#ac)"><g clip-path="url(#ad)"><path fill="#000000" d="M 100.742188 64.421875 C 98.527344 63.023438 96.183594 63.9375 95.511719 66.464844 L 95.359375 67.035156 C 94.683594 69.5625 96.253906 71.671875 98.867188 71.75 L 108.257812 72.027344 C 110.867188 72.105469 111.199219 71.035156 108.984375 69.636719 Z M 100.742188 64.421875"/></g></g></g></g><g clip-path="url(#ae)"><g clip-path="url(#af)"><g clip-path="url(#ag)"><g clip-path="url(#ah)"><path fill="#000000" d="M 11.757812 48.074219 C 13.972656 49.472656 16.3125 48.558594 16.992188 46.03125 L 17.140625 45.460938 C 17.820312 42.933594 16.246094 40.824219 13.632812 40.746094 L 4.246094 40.46875 C 1.632812 40.390625 1.304688 41.464844 3.515625 42.859375 Z M 11.757812 48.074219"/></g></g></g></g><g clip-path="url(#ai)"><g clip-path="url(#aj)"><g clip-path="url(#ak)"><g clip-path="url(#al)"><path fill="#000000" d="M 100.847656 48.710938 C 98.292969 48.152344 96.40625 49.816406 96.632812 52.417969 L 96.691406 53.007812 C 96.914062 55.613281 99.117188 57.058594 101.605469 56.238281 L 110.515625 53.289062 C 112.996094 52.46875 112.941406 51.34375 110.382812 50.785156 Z M 100.847656 48.710938"/></g></g></g></g><g clip-path="url(#am)"><g clip-path="url(#an)"><g clip-path="url(#ao)"><g clip-path="url(#ap)"><path fill="#000000" d="M 11.648438 63.785156 C 14.203125 64.347656 16.089844 62.683594 15.867188 60.078125 L 15.8125 59.488281 C 15.585938 56.882812 13.382812 55.4375 10.902344 56.257812 L 1.988281 59.203125 C -0.496094 60.023438 -0.4375 61.144531 2.117188 61.703125 Z M 11.648438 63.785156"/></g></g></g></g><g clip-path="url(#aq)"><g clip-path="url(#ar)"><g clip-path="url(#as)"><g clip-path="url(#at)"><path fill="#000000" d="M 105.246094 32.605469 L 95.582031 33.910156 C 92.988281 34.261719 91.785156 36.46875 92.890625 38.839844 L 93.136719 39.371094 C 94.246094 41.742188 96.804688 42.347656 98.859375 40.730469 L 106.226562 34.910156 C 108.277344 33.289062 107.84375 32.257812 105.246094 32.605469 Z M 105.246094 32.605469"/></g></g></g></g><g clip-path="url(#au)"><g clip-path="url(#av)"><g clip-path="url(#aw)"><g clip-path="url(#ax)"><path fill="#000000" d="M 7.25 79.890625 L 16.914062 78.589844 C 19.507812 78.238281 20.710938 76.03125 19.605469 73.660156 L 19.359375 73.125 C 18.25 70.753906 15.691406 70.148438 13.636719 71.765625 L 6.269531 77.589844 C 4.21875 79.210938 4.652344 80.242188 7.25 79.890625 Z M 7.25 79.890625"/></g></g></g></g><g clip-path="url(#ay)"><g clip-path="url(#az)"><g clip-path="url(#aA)"><g clip-path="url(#aB)"><path fill="#000000" d="M 96.835938 37.636719 C 93.878906 38.429688 91.28125 39.789062 89.449219 41.53125 C 87.921875 42.960938 87.085938 44.515625 86.917969 46.074219 L 73.855469 49.566406 L 79.25 35.679688 C 79.519531 34.988281 79.355469 34.199219 78.828125 33.671875 C 78.304688 33.144531 77.519531 32.980469 76.828125 33.25 L 62.941406 38.636719 L 66.449219 25.546875 C 67.933594 25.378906 69.429688 24.597656 70.808594 23.21875 C 70.875 23.152344 70.945312 23.082031 71.007812 23.015625 C 72.753906 21.183594 74.070312 18.625 74.863281 15.664062 C 76.664062 8.953125 74.976562 2.988281 70.699219 2.027344 C 66.757812 0.734375 62.171875 5.074219 60.375 11.78125 C 59.582031 14.742188 59.511719 17.6875 60.105469 20.140625 C 60.597656 22.164062 61.542969 23.679688 62.804688 24.605469 L 59.3125 37.675781 L 49.984375 26.0625 C 49.519531 25.480469 48.757812 25.230469 48.039062 25.421875 C 47.324219 25.617188 46.863281 26.132812 46.75 26.867188 L 44.550781 41.507812 L 34.984375 31.941406 C 36.394531 28.710938 34.679688 23.835938 30.515625 19.671875 C 25.605469 14.757812 19.582031 13.371094 16.558594 16.394531 C 13.535156 19.417969 15.015625 25.347656 19.929688 30.257812 C 24.09375 34.421875 28.769531 36.335938 32.332031 34.589844 L 41.902344 44.160156 L 27.105469 46.515625 C 26.371094 46.628906 25.734375 47.203125 25.542969 47.917969 C 25.351562 48.636719 25.582031 49.421875 26.160156 49.886719 L 37.757812 59.226562 L 24.683594 62.734375 C 22.585938 59.871094 17.480469 58.84375 11.792969 60.367188 C 8.835938 61.160156 6.199219 62.554688 4.367188 64.300781 C 2.214844 66.332031 1.386719 68.621094 1.960938 70.765625 C 2.535156 72.910156 4.421875 74.472656 7.277344 75.164062 C 9.734375 75.761719 12.714844 75.648438 15.675781 74.859375 C 18.894531 73.996094 21.542969 72.515625 23.304688 70.753906 C 24.652344 69.40625 25.464844 67.894531 25.636719 66.367188 L 38.71875 62.859375 L 33.332031 76.742188 C 33.0625 77.4375 33.230469 78.222656 33.753906 78.746094 C 34.28125 79.273438 35.066406 79.4375 35.757812 79.167969 L 49.644531 73.78125 L 46.136719 86.867188 C 42.609375 87.257812 39.167969 91.144531 37.644531 96.828125 C 36.851562 99.789062 36.742188 102.769531 37.339844 105.222656 C 38.027344 108.078125 39.589844 109.964844 41.734375 110.542969 C 43.808594 111.097656 46.027344 110.316406 48.003906 108.339844 C 48.070312 108.273438 48.136719 108.203125 48.203125 108.136719 C 49.945312 106.304688 51.339844 103.667969 52.132812 100.710938 C 53.65625 95.023438 52.628906 89.921875 49.765625 87.824219 L 53.265625 74.753906 L 62.597656 86.359375 C 63.0625 86.941406 63.828125 87.1875 64.542969 86.996094 C 65.261719 86.804688 65.875 86.128906 65.988281 85.394531 L 68.34375 70.601562 L 77.910156 80.171875 C 76.167969 83.730469 78.0625 88.429688 82.222656 92.59375 C 87.136719 97.503906 93.085938 98.96875 96.105469 95.945312 C 99.128906 92.921875 97.761719 86.878906 92.851562 81.964844 C 88.6875 77.800781 83.792969 76.105469 80.5625 77.519531 L 70.992188 67.949219 L 85.636719 65.75 C 86.035156 65.6875 86.359375 65.535156 86.636719 65.261719 C 86.863281 65.03125 87.015625 64.765625 87.101562 64.441406 C 87.292969 63.722656 87.035156 62.96875 86.457031 62.503906 L 74.84375 53.175781 L 87.917969 49.675781 C 88.847656 50.9375 90.378906 51.867188 92.402344 52.355469 C 94.855469 52.949219 97.835938 52.839844 100.796875 52.046875 C 104.019531 51.1875 106.589844 49.785156 108.351562 48.019531 C 110.261719 46.113281 111.171875 43.828125 110.476562 41.804688 C 110.476562 41.800781 110.476562 41.800781 110.476562 41.800781 C 109.511719 37.527344 103.546875 35.839844 96.835938 37.636719 Z M 63.789062 19.222656 C 63.347656 17.390625 63.453125 15.003906 64.074219 12.675781 C 64.800781 9.964844 66.023438 7.957031 67.222656 6.757812 C 68.222656 5.757812 69.210938 5.316406 69.882812 5.496094 C 71.359375 5.894531 72.652344 9.644531 71.320312 14.617188 C 70.695312 16.945312 69.59375 19.066406 68.292969 20.425781 C 67.296875 21.46875 66.25 21.992188 65.511719 21.796875 C 64.777344 21.601562 64.132812 20.636719 63.789062 19.222656 Z M 21.878906 65.421875 C 21.878906 65.425781 21.878906 65.425781 21.882812 65.429688 C 21.882812 65.433594 21.882812 65.433594 21.882812 65.4375 C 22.269531 66.917969 19.667969 69.90625 14.703125 71.234375 C 12.375 71.859375 9.988281 71.964844 8.160156 71.519531 C 6.742188 71.175781 5.777344 70.53125 5.582031 69.796875 C 5.394531 69.089844 5.851562 68.109375 6.816406 67.148438 C 6.859375 67.105469 6.90625 67.058594 6.953125 67.015625 C 8.316406 65.71875 10.433594 64.613281 12.761719 63.992188 C 17.730469 62.660156 21.476562 63.949219 21.878906 65.421875 Z M 48.511719 99.738281 C 47.886719 102.070312 46.785156 104.1875 45.484375 105.550781 C 44.5 106.570312 43.441406 107.117188 42.707031 106.917969 C 41.96875 106.722656 41.324219 105.757812 40.980469 104.34375 C 40.539062 102.511719 40.644531 100.128906 41.265625 97.800781 C 41.992188 95.085938 43.214844 93.078125 44.414062 91.878906 C 45.410156 90.882812 46.394531 90.441406 47.066406 90.617188 C 47.066406 90.617188 47.070312 90.621094 47.070312 90.621094 C 47.074219 90.621094 47.078125 90.621094 47.082031 90.621094 C 48.554688 91.027344 49.84375 94.773438 48.511719 99.738281 Z M 49.808594 31.644531 L 58.234375 42.039062 L 55.476562 52.433594 L 47.839844 44.796875 Z M 45.1875 47.445312 L 52.824219 55.085938 L 42.355469 57.917969 L 31.882812 49.570312 Z M 38.367188 74.136719 L 43.207031 61.65625 L 53.640625 58.859375 L 50.84375 69.292969 Z M 62.933594 80.621094 L 54.582031 70.148438 L 57.417969 59.675781 L 65.054688 67.3125 Z M 90.101562 84.714844 C 93.742188 88.355469 94.496094 92.25 93.417969 93.332031 C 92.335938 94.414062 88.441406 93.660156 84.796875 90.015625 C 81.15625 86.375 80.402344 82.480469 81.484375 81.398438 C 82.566406 80.316406 86.460938 81.070312 90.101562 84.714844 Z M 31.101562 31.019531 C 30.023438 32.097656 26.125 31.347656 22.484375 27.703125 C 18.84375 24.0625 18.089844 20.167969 19.171875 19.085938 C 20.25 18.003906 24.144531 18.757812 27.789062 22.398438 C 31.429688 26.042969 32.183594 29.9375 31.101562 31.019531 Z M 67.707031 64.664062 L 60.070312 57.027344 L 70.464844 54.269531 L 80.859375 62.695312 Z M 69.378906 50.761719 L 58.945312 53.558594 L 61.742188 43.125 L 74.21875 38.28125 Z M 107.003906 42.621094 C 107.402344 44.097656 104.800781 47.09375 99.824219 48.425781 C 97.496094 49.050781 95.109375 49.15625 93.28125 48.710938 C 91.867188 48.367188 90.902344 47.726562 90.703125 46.988281 C 90.515625 46.28125 90.976562 45.304688 91.9375 44.339844 C 91.984375 44.296875 92.027344 44.25 92.074219 44.207031 C 93.4375 42.910156 95.554688 41.804688 97.882812 41.183594 C 102.859375 39.851562 106.609375 41.144531 107.003906 42.621094 Z M 107.003906 42.621094"/></g></g></g></g></svg>